<svg width="20" height="16" viewBox="0 0 20 16" fill="none" xmlns="http://www.w3.org/2000/svg">
<path fill-rule="evenodd" clip-rule="evenodd" d="M18.3333 1.88158H1.66667L1.66667 14.1184H18.3333V1.88158ZM1.66667 0.25C0.746192 0.25 0 0.980483 0 1.88158V14.1184C0 15.0195 0.746192 15.75 1.66667 15.75H18.3333C19.2538 15.75 20 15.0195 20 14.1184V1.88158C20 0.980483 19.2538 0.25 18.3333 0.25H1.66667Z" fill="#452C00"/>
<path fill-rule="evenodd" clip-rule="evenodd" d="M2.66672 3.02375C2.94286 2.66331 3.46519 2.59026 3.83338 2.86059L10 7.38823L16.1667 2.86059C16.5349 2.59026 17.0572 2.66331 17.3334 3.02375C17.6095 3.38419 17.5349 3.89553 17.1667 4.16586L11 8.69349C10.4075 9.12858 9.59264 9.12858 9.00005 8.69349L2.83338 4.16586C2.46519 3.89553 2.39057 3.38419 2.66672 3.02375Z" fill="#452C00"/>
</svg>
