<svg width="210" height="63" viewBox="0 0 210 63" fill="none" xmlns="http://www.w3.org/2000/svg">
<path d="M3 53.5L9.94191 46.5581C18.8105 37.6895 33.1895 37.6895 42.0581 46.5581L42.4415 46.9415C51.2483 55.7483 65.5784 55.5791 74.1748 46.5667V46.5667C82.636 37.6961 96.6888 37.3716 105.55 45.8423L107.513 47.7178C116.339 56.1553 130.337 55.8321 138.765 46.9962V46.9962C147.374 37.9705 161.841 37.9558 170.592 46.8438V46.8438C179.305 55.6922 193.654 55.8456 202.435 47.065L207.5 42" stroke="#FFDDA2" stroke-width="5" stroke-linecap="round"/>
<path d="M3 23L9.94191 16.0581C18.8105 7.18945 33.1895 7.18946 42.0581 16.0581L42.4415 16.4415C51.2483 25.2483 65.5784 25.0791 74.1748 16.0667V16.0667C82.636 7.1961 96.6888 6.87163 105.55 15.3423L107.513 17.2178C116.339 25.6553 130.337 25.3321 138.765 16.4962V16.4962C147.374 7.47053 161.841 7.45581 170.592 16.3438V16.3438C179.305 25.1922 193.654 25.3456 202.435 16.565L207.5 11.5" stroke="#FFDDA2" stroke-width="5" stroke-linecap="round"/>
</svg>
