<svg xmlns="http://www.w3.org/2000/svg" version="1.1" xmlns:xlink="http://www.w3.org/1999/xlink" xmlns:svgjs="http://svgjs.com/svgjs" width="118" height="96"><svg width="118" height="96" viewBox="0 0 118 96" fill="none" xmlns="http://www.w3.org/2000/svg">
<path d="M38.7441 39.334C36.7389 39.334 35.3034 39.6074 34.4375 40.1543C33.5944 40.6784 33.1729 41.6924 33.1729 43.1963V64.3193H40.0088C40.943 64.3193 41.7292 64.2282 42.3672 64.0459C43.0052 63.8636 43.5065 63.4876 43.8711 62.918C44.2357 62.3255 44.4863 61.5052 44.623 60.457C44.7826 59.4089 44.8623 58.0189 44.8623 56.2871H56.8252V77H7.40137V64.3193C9.40658 64.3193 10.8421 64.0573 11.708 63.5332C12.5739 62.9863 13.0068 61.9723 13.0068 60.4912V43.1963C13.0068 41.6924 12.5739 40.6784 11.708 40.1543C10.8421 39.6074 9.40658 39.334 7.40137 39.334V26.6533H38.7441V39.334ZM114.281 39.1973C114.281 46.4889 110.487 50.4766 102.899 51.1602V51.5361C106.864 51.6273 109.986 52.7096 112.265 54.7832C114.543 56.8568 115.683 59.8532 115.683 63.7725C115.683 65.4131 115.489 67.0309 115.102 68.626C114.714 70.1982 113.871 71.5996 112.572 72.8301C111.296 74.0605 109.439 75.0632 107.001 75.8379C104.586 76.6126 101.327 77 97.2256 77H59.6279V64.3193C61.6331 64.3193 63.0687 64.0573 63.9346 63.5332C64.8005 62.9863 65.2334 61.9723 65.2334 60.4912V43.1963C65.2334 41.6924 64.8005 40.6784 63.9346 40.1543C63.0687 39.6074 61.6331 39.334 59.6279 39.334V26.6533H99.584C102.729 26.6533 105.269 27.0065 107.206 27.7129C109.143 28.4193 110.635 29.3535 111.684 30.5156C112.732 31.6777 113.427 33.0221 113.769 34.5488C114.11 36.0527 114.281 37.6022 114.281 39.1973ZM90.4922 64.3193C92.4062 64.3193 93.7279 63.9548 94.457 63.2256C95.1862 62.4736 95.5508 61.2318 95.5508 59.5C95.5508 57.7682 95.1862 56.515 94.457 55.7402C93.7279 54.9427 92.4062 54.5439 90.4922 54.5439H85.3994V64.3193H90.4922ZM85.3994 48.4941H90.5605C91.9733 48.4941 92.9873 48.0498 93.6025 47.1611C94.2406 46.2497 94.5596 45.1559 94.5596 43.8799C94.5596 42.6722 94.2406 41.6126 93.6025 40.7012C92.9873 39.7897 91.9733 39.334 90.5605 39.334H85.3994V48.4941Z" fill="#777520"></path>
<path d="M35.7441 36.334C33.7389 36.334 32.3034 36.6074 31.4375 37.1543C30.5944 37.6784 30.1729 38.6924 30.1729 40.1963V61.3193H37.0088C37.943 61.3193 38.7292 61.2282 39.3672 61.0459C40.0052 60.8636 40.5065 60.4876 40.8711 59.918C41.2357 59.3255 41.4863 58.5052 41.623 57.457C41.7826 56.4089 41.8623 55.0189 41.8623 53.2871H53.8252V74H4.40137V61.3193C6.40658 61.3193 7.84212 61.0573 8.70801 60.5332C9.57389 59.9863 10.0068 58.9723 10.0068 57.4912V40.1963C10.0068 38.6924 9.57389 37.6784 8.70801 37.1543C7.84212 36.6074 6.40658 36.334 4.40137 36.334V23.6533H35.7441V36.334ZM111.281 36.1973C111.281 43.4889 107.487 47.4766 99.8994 48.1602V48.5361C103.864 48.6273 106.986 49.7096 109.265 51.7832C111.543 53.8568 112.683 56.8532 112.683 60.7725C112.683 62.4131 112.489 64.0309 112.102 65.626C111.714 67.1982 110.871 68.5996 109.572 69.8301C108.296 71.0605 106.439 72.0632 104.001 72.8379C101.586 73.6126 98.3271 74 94.2256 74H56.6279V61.3193C58.6331 61.3193 60.0687 61.0573 60.9346 60.5332C61.8005 59.9863 62.2334 58.9723 62.2334 57.4912V40.1963C62.2334 38.6924 61.8005 37.6784 60.9346 37.1543C60.0687 36.6074 58.6331 36.334 56.6279 36.334V23.6533H96.584C99.7285 23.6533 102.269 24.0065 104.206 24.7129C106.143 25.4193 107.635 26.3535 108.684 27.5156C109.732 28.6777 110.427 30.0221 110.769 31.5488C111.11 33.0527 111.281 34.6022 111.281 36.1973ZM87.4922 61.3193C89.4062 61.3193 90.7279 60.9548 91.457 60.2256C92.1862 59.4736 92.5508 58.2318 92.5508 56.5C92.5508 54.7682 92.1862 53.515 91.457 52.7402C90.7279 51.9427 89.4062 51.5439 87.4922 51.5439H82.3994V61.3193H87.4922ZM82.3994 45.4941H87.5605C88.9733 45.4941 89.9873 45.0498 90.6025 44.1611C91.2406 43.2497 91.5596 42.1559 91.5596 40.8799C91.5596 39.6722 91.2406 38.6126 90.6025 37.7012C89.9873 36.7897 88.9733 36.334 87.5605 36.334H82.3994V45.4941Z" fill="#FEE950"></path>
<path d="M32.7441 33.334C30.7389 33.334 29.3034 33.6074 28.4375 34.1543C27.5944 34.6784 27.1729 35.6924 27.1729 37.1963V58.3193H34.0088C34.943 58.3193 35.7292 58.2282 36.3672 58.0459C37.0052 57.8636 37.5065 57.4876 37.8711 56.918C38.2357 56.3255 38.4863 55.5052 38.623 54.457C38.7826 53.4089 38.8623 52.0189 38.8623 50.2871H50.8252V71H1.40137V58.3193C3.40658 58.3193 4.84212 58.0573 5.70801 57.5332C6.57389 56.9863 7.00684 55.9723 7.00684 54.4912V37.1963C7.00684 35.6924 6.57389 34.6784 5.70801 34.1543C4.84212 33.6074 3.40658 33.334 1.40137 33.334V20.6533H32.7441V33.334ZM108.281 33.1973C108.281 40.4889 104.487 44.4766 96.8994 45.1602V45.5361C100.864 45.6273 103.986 46.7096 106.265 48.7832C108.543 50.8568 109.683 53.8532 109.683 57.7725C109.683 59.4131 109.489 61.0309 109.102 62.626C108.714 64.1982 107.871 65.5996 106.572 66.8301C105.296 68.0605 103.439 69.0632 101.001 69.8379C98.5856 70.6126 95.3271 71 91.2256 71H53.6279V58.3193C55.6331 58.3193 57.0687 58.0573 57.9346 57.5332C58.8005 56.9863 59.2334 55.9723 59.2334 54.4912V37.1963C59.2334 35.6924 58.8005 34.6784 57.9346 34.1543C57.0687 33.6074 55.6331 33.334 53.6279 33.334V20.6533H93.584C96.7285 20.6533 99.2692 21.0065 101.206 21.7129C103.143 22.4193 104.635 23.3535 105.684 24.5156C106.732 25.6777 107.427 27.0221 107.769 28.5488C108.11 30.0527 108.281 31.6022 108.281 33.1973ZM84.4922 58.3193C86.4062 58.3193 87.7279 57.9548 88.457 57.2256C89.1862 56.4736 89.5508 55.2318 89.5508 53.5C89.5508 51.7682 89.1862 50.515 88.457 49.7402C87.7279 48.9427 86.4062 48.5439 84.4922 48.5439H79.3994V58.3193H84.4922ZM79.3994 42.4941H84.5605C85.9733 42.4941 86.9873 42.0498 87.6025 41.1611C88.2406 40.2497 88.5596 39.1559 88.5596 37.8799C88.5596 36.6722 88.2406 35.6126 87.6025 34.7012C86.9873 33.7897 85.9733 33.334 84.5605 33.334H79.3994V42.4941Z" fill="#BC0E0E"></path>
</svg><style>@media (prefers-color-scheme: light) { :root { filter: none; } }
</style></svg>