<svg width="238" height="133" viewBox="0 0 238 133" fill="none" xmlns="http://www.w3.org/2000/svg">
<path d="M235.486 64.8973H212.503C209.849 64.9975 210.65 63.2449 210.4 53.0802C210.4 46.3705 213.154 23.2371 214.606 23.2371H234.334C234.935 23.2371 236.738 23.0869 236.738 24.0884C236.738 24.4889 233.533 31.4991 232.882 31.4991C232.031 31.4991 230.529 29.1457 225.622 29.1457C222.167 29.1457 218.512 31.1986 218.512 36.0056C218.512 37.0571 218.712 38.8597 220.114 38.8597C221.716 38.8597 225.271 36.5063 229.477 36.5063C230.078 36.5063 231.731 36.7066 231.731 37.5578C231.731 37.6079 228.927 45.7697 228.326 45.7697C227.825 45.7697 225.922 44.7682 223.969 44.7682C221.416 44.7682 217.71 46.6209 217.71 51.5781C217.71 55.5839 219.813 58.4881 224.019 58.4881C228.977 58.4881 232.031 55.1833 233.233 55.1833C233.984 55.1833 237.339 63.6455 237.339 64.1462C237.339 65.0976 236.087 64.8973 235.486 64.8973Z" fill="#EC4D3C"/>
<path d="M200.636 64.8974H195.379C191.924 64.8974 195.028 61.7929 187.217 45.97C186.566 44.6181 182.159 36.2059 180.557 36.2059C179.305 36.2059 179.656 41.6638 179.656 42.6653C179.656 56.7857 181.709 61.893 181.709 64.4467C181.709 65.0977 180.757 64.8974 180.307 64.8974H175.65C174.398 64.8974 172.896 65.8487 172.896 47.0716C172.896 22.3359 175.5 23.2372 176.351 23.2372H180.307C182.21 23.2372 186.015 27.243 195.379 44.568C195.529 44.8184 195.779 45.4693 196.23 45.4693C196.731 45.4693 196.63 43.3162 196.63 42.6152C196.63 33.2517 194.077 24.9396 194.077 23.788C194.077 23.087 195.178 23.2372 196.13 23.2372H199.935C201.037 23.2372 203.39 22.3359 203.39 47.0716C203.39 65.8487 201.888 64.8974 200.636 64.8974Z" fill="#EC4D3C"/>
<path d="M154.01 65.6484C142.393 65.6484 136.635 57.6368 136.635 46.4707C136.635 34.6536 143.194 22.486 155.162 22.486C159.518 22.486 166.228 24.3387 166.228 29.7465C166.228 32.6507 164.225 34.3031 161.07 34.3031C159.017 34.3031 161.771 29.5963 155.412 29.5963C147.501 29.5963 144.747 38.5592 144.747 45.5193C144.747 50.9772 146.299 56.7355 152.858 56.7355C155.963 56.7355 159.318 55.4336 159.318 51.9286C159.318 47.8727 155.362 47.5222 155.362 46.2203C155.362 45.5694 163.974 42.4649 164.575 42.4649C165.577 42.4649 166.728 54.6825 166.728 56.1847C166.728 62.7442 160.219 65.6484 154.01 65.6484Z" fill="#EC4D3C"/>
<path d="M128.06 64.8973H122.452C122.002 64.8973 120.55 65.0475 120.55 64.2964C120.55 62.8944 124.405 57.8872 124.405 52.1789C124.405 49.9257 122.252 49.0744 119.999 49.0744C115.442 49.0744 108.182 49.8756 108.182 55.5838C108.182 59.5396 111.436 63.7957 111.436 64.5468C111.436 64.8472 111.136 64.8973 110.485 64.8973H103.325C100.771 64.8973 100.07 60.3908 100.07 53.8814C100.07 32.4504 114.941 22.486 117.145 22.486C118.797 22.486 131.716 29.6464 131.716 52.8799C131.716 66.2493 129.563 64.8973 128.06 64.8973ZM117.345 31.0484C114.641 31.0484 109.283 39.0099 109.283 42.6652C109.283 43.266 109.634 43.6166 110.235 43.6166C111.136 43.6166 115.993 42.3147 120.399 42.3147C122.152 42.3147 122.953 42.0643 122.953 40.6623C122.953 37.5578 119.248 31.0484 117.345 31.0484Z" fill="#EC4D3C"/>
<path d="M88.479 33.7523C87.2272 33.7523 85.2743 29.2458 80.0668 29.2458C77.5632 29.2458 74.3586 30.4976 74.3586 33.4018C74.3586 37.007 79.3157 38.409 82.0697 39.3604C92.5849 42.8655 94.738 47.9228 94.738 52.6796C94.738 58.488 90.582 65.6484 80.0167 65.6484C72.9065 65.6484 65.696 61.8429 65.696 53.8814C65.696 49.6252 68.2497 47.1216 68.7505 47.1216C69.6017 47.1216 68.7505 57.2863 79.516 57.2863C83.3215 57.2863 86.6263 55.6339 86.6263 52.5294C86.6263 48.8741 82.1198 47.372 79.2156 46.4707C68.2497 43.0658 67.048 38.1086 67.048 33.8524C67.048 29.6464 69.9021 22.486 80.0668 22.486C87.3273 22.486 92.4847 26.3416 92.4847 27.7937C92.4847 29.1957 89.881 33.7523 88.479 33.7523Z" fill="#EC4D3C"/>
<path d="M56.721 64.8973H51.1129C50.6623 64.8973 49.2102 65.0475 49.2102 64.2964C49.2102 62.8944 53.0658 57.8872 53.0658 52.1789C53.0658 49.9257 50.9126 49.0744 48.6594 49.0744C44.1028 49.0744 36.8423 49.8756 36.8423 55.5838C36.8423 59.5396 40.097 63.7957 40.097 64.5468C40.097 64.8472 39.7966 64.8973 39.1456 64.8973H31.9853C29.4316 64.8973 28.7306 60.3908 28.7306 53.8814C28.7306 32.4504 43.6021 22.486 45.8053 22.486C47.4576 22.486 60.3763 29.6464 60.3763 52.8799C60.3763 66.2493 58.2232 64.8973 56.721 64.8973ZM46.0055 31.0484C43.3016 31.0484 37.9439 39.0099 37.9439 42.6652C37.9439 43.266 38.2944 43.6166 38.8953 43.6166C39.7966 43.6166 44.6536 42.3147 49.06 42.3147C50.8125 42.3147 51.6137 42.0643 51.6137 40.6623C51.6137 37.5578 47.9083 31.0484 46.0055 31.0484Z" fill="#EC4D3C"/>
<path d="M22.4825 64.8973H2.10304C-0.550796 64.9975 0.250362 63.2449 0 53.0802C0 46.3705 2.75398 23.2371 4.20608 23.2371H12.1676C12.5181 23.2371 13.119 23.3373 13.119 24.2386C13.119 25.3402 7.31056 36.1057 7.31056 49.9257C7.31056 56.8357 10.3149 58.4881 13.0689 58.4881C17.6755 58.4881 20.4796 54.2319 21.7314 54.2319C22.6828 54.2319 24.6356 63.8959 24.6356 64.1462C24.6356 65.1477 23.0834 64.8973 22.4825 64.8973Z" fill="#EC4D3C"/>
<path d="M179.989 67.3562C180.08 67.3305 180.194 67.2984 180.331 67.2599C180.456 67.1757 180.596 67.0622 180.753 66.9194L181.165 66.8039L181.351 66.6775L182.037 66.4849C182.896 66.7365 183.263 67.0772 183.137 67.507C183.045 67.8782 182.76 68.1802 182.283 68.4129C181.89 68.7698 181.343 69.1945 180.644 69.687C179.989 70.1667 179.312 70.6527 178.612 71.1452C177.945 71.5792 177.341 71.9711 176.798 72.3208C176.255 72.6705 175.938 72.8582 175.847 72.8839C175.801 72.8968 175.762 72.9325 175.729 72.991C175.729 72.991 175.683 73.0038 175.592 73.0295C175.513 73.1009 175.451 73.143 175.405 73.1559C175.125 74.6153 174.873 75.6477 174.648 76.2531C174.457 76.8 174.262 77.2491 174.065 77.6004L173.75 78.0587C172.943 79.2224 172.235 80.2104 171.625 81.0228C171.015 81.8352 170.47 82.5306 169.992 83.1088C169.559 83.6742 169.169 84.129 168.822 84.473C168.488 84.8628 168.18 85.1712 167.898 85.3982L167.879 85.3296C167.106 86.0892 166.38 86.6631 165.7 87.0513C165.066 87.4267 164.566 87.6658 164.2 87.7685C163.286 88.0254 162.612 87.9931 162.176 87.6716C161.708 87.4087 161.39 86.9802 161.223 86.3861C160.979 85.5178 161.147 84.5339 161.725 83.4344C162.258 82.3478 162.964 81.262 163.842 80.1768C164.767 79.0789 165.785 78.0531 166.898 77.0994C167.998 76.1001 168.97 75.2599 169.814 74.5789C170.645 73.8522 171.241 73.3397 171.601 73.0413C171.994 72.6844 171.935 72.6516 171.425 72.9428L171.132 72.9513C170.538 73.1182 169.751 73.3886 168.771 73.7625C167.778 74.0907 166.857 74.4975 166.007 74.9828C165.576 75.2026 165.168 75.416 164.782 75.623C164.383 75.7842 163.851 75.9091 163.186 75.9974L163.254 75.9782C163.209 75.991 163.163 76.0039 163.117 76.0167C163.105 75.971 163.075 75.9546 163.03 75.9674C162.938 75.9931 162.795 76.0088 162.599 76.0144C162.436 75.9615 162.326 75.9187 162.267 75.8858L162.336 75.8666C161.88 75.6494 161.539 75.4001 161.312 75.1187C161.085 74.8373 160.933 74.5595 160.856 74.2853C160.779 74.0111 160.76 73.7697 160.8 73.5613C160.873 73.2942 160.936 73.0793 160.989 72.9165C161.115 72.4867 161.332 72.0312 161.64 71.55C161.949 71.0689 162.311 70.4249 162.725 69.6181L162.873 69.3547C163.318 68.835 163.774 68.2632 164.24 67.6392C164.706 67.0153 165.207 66.4306 165.744 65.8852C166.268 65.2941 166.812 64.7716 167.375 64.3176C167.97 63.8051 168.582 63.4361 169.209 63.2106L169.65 62.9387C169.924 62.8617 170.24 62.8467 170.599 62.894C170.944 62.8955 171.244 62.9098 171.498 62.937C171.843 63.2841 172.001 63.5848 171.974 63.839C171.992 64.0803 171.923 64.2724 171.766 64.4152L171.127 65.0383L171.01 65.1454C170.911 65.321 170.737 65.4931 170.489 65.6615C170.555 65.5444 170.476 65.6158 170.253 65.8757C170.063 66.077 169.867 66.2554 169.664 66.4111C169.401 66.8794 168.975 67.2948 168.387 67.6574C167.798 68.02 167.337 68.3962 167.003 68.786L166.433 69.3899L165.636 70.5014L165.154 71.1547C164.662 71.6872 164.265 72.2919 163.962 72.9687C164.668 72.6718 165.298 72.3714 165.854 72.0674C166.468 71.7962 167.157 71.5286 167.921 71.2646C168.718 70.9421 169.511 70.6945 170.301 70.5219C170.725 70.452 171.202 70.3922 171.73 70.3423C172.258 70.2925 172.738 70.3305 173.167 70.4562L173.099 70.4755C173.679 70.6085 173.975 70.6978 173.988 70.7435C174.046 70.7764 174.098 70.7864 174.144 70.7735L174.251 70.8914C174.284 70.8328 174.323 70.7971 174.369 70.7843C174.415 70.7714 174.46 70.7586 174.506 70.7458C174.585 70.6744 174.647 70.6323 174.693 70.6194L174.997 70.386L179.459 67.5789C179.597 67.5403 179.773 67.4661 179.989 67.3562ZM166.216 80.9893C166.15 81.1064 165.946 81.4348 165.605 81.9745C165.264 82.5142 165.05 82.8948 164.964 83.1161C164.663 83.4473 164.414 83.7886 164.216 84.1398C164.065 84.4782 163.963 84.7288 163.91 84.8916C163.837 85.1587 163.931 85.2308 164.193 85.1081C164.467 85.031 164.784 84.8433 165.144 84.5449C165.517 84.2923 165.877 83.9939 166.224 83.6498C166.629 83.3386 166.888 83.118 166.999 82.9881L166.931 83.0074L168.375 81.5661C169.443 80.2797 170.214 79.2495 170.687 78.4756C171.147 77.656 171.526 76.81 171.823 75.9375L171.077 76.4429C169.886 77.4679 169.015 78.2303 168.466 78.73C167.903 79.1839 167.448 79.583 167.101 79.9271L166.402 80.863L166.216 80.9893Z" fill="#452C00"/>
<path d="M151.381 75.69C151.328 75.8528 151.075 76.269 150.622 76.9387C150.202 77.5498 149.704 78.2323 149.127 78.9861C148.595 79.7272 148.057 80.4454 147.513 81.1407C147.002 81.7775 146.651 82.1965 146.461 82.3978C146.284 82.6448 145.963 82.9075 145.499 83.1859C145.068 83.4057 144.562 83.4491 143.982 83.3162C142.599 83.6557 141.386 83.5526 140.345 83.0068C140.144 82.8168 139.963 82.5225 139.801 82.1241C139.686 81.7128 139.622 81.3115 139.611 80.9202C139.625 80.6203 139.64 80.3204 139.654 80.0205C139.701 79.6621 139.732 79.3329 139.746 79.033C139.812 78.9159 139.832 78.8117 139.806 78.7203C139.781 78.6289 139.784 78.5539 139.817 78.4954C139.837 78.3911 139.864 78.3097 139.897 78.2512C139.929 78.1926 139.956 78.1112 139.976 78.007C140.016 77.7985 140.04 77.6193 140.047 77.4694C140.041 77.2737 140.081 77.0652 140.167 76.8439C140.227 76.5312 140.32 76.1599 140.446 75.7301C140.559 75.2546 140.671 74.779 140.784 74.3035C140.943 73.8152 141.085 73.3561 141.211 72.9263C141.383 72.4836 141.505 72.1288 141.578 71.8617C141.729 71.5233 142.008 71.1985 142.413 70.8873C142.852 70.5175 143.377 70.3699 143.99 70.4443C144.498 70.4987 144.931 70.7223 145.288 71.1151C145.678 71.4493 145.816 71.8542 145.703 72.3298L145.418 72.6317C145.365 72.7945 145.309 73.0323 145.249 73.345C145.189 73.6577 145.106 73.9769 145 74.3025C144.94 74.6152 144.88 74.9279 144.82 75.2406C144.747 75.5077 144.694 75.6705 144.661 75.729C144.66 76.0746 144.593 76.3645 144.462 76.5986C144.318 76.7871 144.29 77.0413 144.38 77.3612C144.242 77.7453 144.155 78.1395 144.121 78.5436C144.119 78.8892 144.085 79.2933 144.018 79.756C144.135 79.8217 144.255 79.8125 144.38 79.7282C144.491 79.5983 144.557 79.4812 144.577 79.377C145.841 78.0849 146.965 76.7335 147.949 75.3228C148.979 73.8993 150.009 72.4758 151.039 71.0523C151.118 70.9809 151.151 70.9224 151.138 70.8767C151.125 70.831 151.152 70.7496 151.217 70.6325L151.571 70.3113C151.481 69.9913 151.433 69.7336 151.428 69.5379C151.455 69.2837 151.482 69.0295 151.509 68.7754C151.902 68.4184 152.373 68.1629 152.921 68.0088C153.515 67.8419 154.096 67.8021 154.663 67.8893C155.014 68.0865 155.27 68.3843 155.431 68.7828C155.638 69.1684 155.754 69.5797 155.778 70.0167C155.848 70.4409 155.872 70.8779 155.851 71.3277C155.862 71.719 155.883 72.0582 155.915 72.3452C155.907 74.0732 155.877 75.6348 155.826 77.03C155.819 78.4123 155.784 79.7783 155.72 81.1278C155.961 81.1093 156.114 81.0415 156.18 80.9244C156.246 80.8073 156.351 80.6546 156.495 80.4661C157.511 79.3425 158.376 78.3844 159.09 77.592C159.804 76.7997 160.479 76.0429 161.115 75.3219C161.783 74.5424 162.498 73.75 163.258 72.9448C164.005 72.0938 164.932 71.0937 166.039 69.9444C167.146 68.7951 168.259 67.6686 169.379 66.565C170.532 65.4029 171.837 64.3457 173.296 63.3936C173.276 63.4978 173.204 63.592 173.079 63.6763C172.988 63.7019 172.909 63.7733 172.844 63.8904C173.006 63.9433 173.16 63.8755 173.304 63.687C173.494 63.4857 173.693 63.4051 173.902 63.4451C173.9 63.7907 173.73 64.0606 173.39 64.2547C173.083 64.3903 172.778 64.6237 172.477 64.9549C172.391 65.1763 172.231 65.394 171.995 65.6082C171.805 65.8095 171.609 65.9879 171.406 66.1435C171.464 66.1764 171.494 66.1928 171.494 66.1928C171.159 66.5826 170.756 66.9916 170.285 67.4199C169.847 67.7897 169.564 68.1895 169.439 68.6193C169.314 68.7035 169.236 68.7749 169.203 68.8334C169.17 68.892 169.102 68.9113 168.997 68.8912C168.552 69.4109 168.089 69.9599 167.611 70.5382C167.165 71.0579 166.72 71.5776 166.274 72.0973C165.841 72.6627 165.552 73.0396 165.408 73.2281C165.297 73.358 165.208 73.4815 165.142 73.5986C165.064 73.67 164.952 73.7999 164.808 73.9884C164.651 74.1311 164.333 74.4916 163.855 75.0699C163.736 75.3497 163.602 75.4861 163.452 75.4789C163.348 75.4589 163.115 75.7709 162.753 76.4148C162.753 76.4148 162.586 76.6097 162.252 76.9995C161.905 77.3436 161.525 77.7462 161.112 78.2073C160.699 78.6685 160.316 79.1461 159.961 79.6401C159.594 80.0884 159.368 80.4233 159.282 80.6446C159.191 80.6703 158.961 80.9073 158.594 81.3556C158.273 81.7911 157.918 82.2851 157.531 82.8377C157.144 83.3902 156.803 83.9299 156.507 84.4568C156.244 84.9252 156.109 85.2343 156.102 85.3842C156.029 85.6513 155.73 86.0803 155.206 86.6714C154.695 87.3082 154.346 87.9979 154.16 88.7404C154.031 89.8614 153.841 91.0245 153.587 92.2298C153.38 93.4221 153.137 94.5752 152.858 95.6891C152.579 96.8029 152.304 97.8417 152.033 98.8056C151.761 99.7695 151.565 100.564 151.445 101.19C151.412 101.248 151.264 101.684 150.999 102.498C150.735 103.312 150.355 104.331 149.861 105.555C149.412 106.766 148.898 108.094 148.318 109.539C147.738 110.984 147.167 112.377 146.607 113.718C146.001 115.071 145.426 116.268 144.88 117.309C144.288 118.363 143.809 119.114 143.442 119.563C142.905 120.108 142.515 120.563 142.272 120.927C142.029 121.291 141.682 121.635 141.231 121.959C140.851 122.362 140.389 122.738 139.847 123.087C139.271 123.496 138.699 123.829 138.13 124.087C137.575 124.391 137.062 124.585 136.592 124.668C136.09 124.809 135.744 124.807 135.555 124.663C135.621 124.546 135.563 124.513 135.38 124.564C135.197 124.616 135.074 124.527 135.009 124.299L134.735 124.376C134.313 124.1 133.998 123.597 133.793 122.865C133.555 122.193 133.398 121.546 133.322 120.927C133.167 120.724 133.152 120.235 133.28 119.459C133.361 118.697 133.542 117.758 133.82 116.645C134.099 115.531 134.427 114.329 134.804 113.04C135.182 111.75 135.578 110.529 135.994 109.377C136.41 108.225 136.806 107.177 137.182 106.233C137.57 105.335 137.88 104.681 138.11 104.271C138.446 103.535 139.047 102.43 139.914 100.953C140.782 99.4768 141.704 97.9354 142.683 96.3291C143.675 94.7685 144.64 93.2892 145.578 91.8914C146.575 90.5264 147.359 89.542 147.929 88.938C147.883 88.9509 147.854 88.9344 147.841 88.8887C147.887 88.8759 147.955 88.8566 148.047 88.831C148.001 88.8438 147.978 88.8502 147.978 88.8502C147.991 88.8959 147.975 88.9252 147.929 88.938C147.962 88.8795 148.001 88.8438 148.047 88.831L148.115 88.8117L150.406 86.1711C150.688 84.3661 150.92 82.6489 151.103 81.0195C151.319 79.3316 151.412 77.5551 151.381 75.69ZM144.169 98.7222C143.782 99.2748 143.276 100.107 142.652 101.219C142.04 102.378 141.399 103.692 140.727 105.163C140.056 106.633 139.403 108.173 138.77 109.78C138.104 111.447 137.556 113.006 137.126 114.458C136.663 115.969 136.374 117.308 136.258 118.475C136.096 119.654 136.19 120.515 136.54 121.058C136.63 121.378 136.756 121.564 136.919 121.617C137.251 121.573 137.519 121.473 137.722 121.318C137.879 121.175 138.053 121.003 138.243 120.801C138.583 120.607 138.818 120.393 138.95 120.159C139.035 119.938 139.242 119.707 139.569 119.467C139.819 118.953 140.069 118.439 140.319 117.925C140.582 117.457 140.838 116.966 141.088 116.452C141.384 115.925 141.667 115.352 141.937 114.734C142.207 114.116 142.454 113.504 142.679 112.898L143.804 110.585L145.084 106.453C145.117 106.395 145.127 106.343 145.114 106.297C145.101 106.251 145.128 106.17 145.193 106.053L145.609 104.9C145.695 104.679 145.933 103.947 146.323 102.703C146.713 101.459 147.117 100.088 147.534 98.5902C148.01 97.1252 148.424 95.7022 148.776 94.3214C149.127 92.9405 149.324 91.973 149.366 91.419L144.169 98.7222Z" fill="#452C00"/>
<path d="M136.824 78.2271C136.959 78.5341 137.039 78.9062 137.063 79.3432C137.075 79.7345 137.021 80.07 136.902 80.3499C136.875 80.6041 136.844 80.9333 136.81 81.3374C136.776 81.7415 136.706 82.1064 136.6 82.432C136.324 82.8546 136.116 83.4308 135.976 84.1605C135.869 84.8316 135.664 85.3328 135.363 85.6641C135.363 85.6641 135.205 85.9796 134.889 86.6108C134.561 87.1962 134.154 87.853 133.668 88.5812C133.169 89.2637 132.612 89.9133 131.997 90.5301C131.427 91.134 130.877 91.4609 130.349 91.5107C129.695 91.9904 129.019 92.3037 128.32 92.4506C127.609 92.5518 126.941 92.5423 126.315 92.4222C125.677 92.2564 125.104 91.9735 124.597 91.5735C124.078 91.1278 123.676 90.5751 123.392 89.9152C123.32 89.8367 123.253 89.6831 123.188 89.4546C123.111 89.1804 123.129 88.9783 123.24 88.8484C123.013 88.567 122.917 88.2243 122.951 87.8201C123.031 87.4032 123.033 87.0576 122.956 86.7834L123.207 82.9405C123.332 82.8563 123.381 82.7684 123.355 82.677C123.362 82.5271 123.412 82.4393 123.503 82.4136C123.597 81.6967 123.783 80.9542 124.061 80.186C124.383 79.4049 124.719 78.6695 125.068 77.9799C125.239 77.5372 125.427 77.0653 125.632 76.5641C125.882 76.05 126.145 75.5817 126.42 75.1591C126.742 74.7236 127.095 74.4024 127.481 74.1954C127.867 73.9884 128.287 73.9935 128.743 74.2107C129.225 74.1737 129.652 74.2017 130.024 74.2946C130.095 74.3731 130.141 74.3603 130.161 74.256C130.226 74.139 130.311 74.0904 130.416 74.1105C130.494 74.0391 130.654 73.9941 130.895 73.9756C131.182 73.9443 131.476 73.9358 131.776 73.9501C132.076 73.9645 132.353 73.9853 132.607 74.0125C132.861 74.0397 133.047 74.0861 133.164 74.1519L134.119 74.919C134.629 74.6278 135.429 74.2303 136.521 73.7264C137.658 73.2098 138.853 72.726 140.107 72.275C141.348 71.7784 142.523 71.3988 143.633 71.1363C144.73 70.8281 145.575 70.7634 146.167 70.942C146.226 70.9749 146.278 70.9849 146.324 70.9721C146.415 70.9464 146.49 70.95 146.549 70.9828C146.607 71.0157 146.659 71.0257 146.705 71.0129C146.966 70.8901 147.11 70.8744 147.135 70.9658C147.207 71.0444 147.334 71.058 147.517 71.0066C147.797 71.1252 147.9 71.3181 147.827 71.5851C147.741 71.8064 147.62 71.9885 147.463 72.1312C146.973 72.3182 146.672 72.4766 146.561 72.6065C146.495 72.7236 146.407 72.8471 146.295 72.9771C146.217 73.0484 146.047 73.1455 145.785 73.2683C145.511 73.3453 144.986 73.493 144.209 73.7113C143.569 73.891 142.896 74.1294 142.191 74.4262C141.531 74.7102 140.861 75.0464 140.181 75.4346C139.501 75.8229 138.844 76.2047 138.21 76.5801C137.609 76.897 137.099 77.1882 136.68 77.4537C136.686 77.6494 136.708 77.8158 136.747 77.9529C136.772 78.0443 136.798 78.1357 136.824 78.2271ZM130.963 76.3234C130.709 76.2962 130.468 76.3147 130.239 76.3789C130.011 76.4431 129.779 76.4095 129.545 76.278L129.397 76.5415C129.187 76.847 129.036 77.1854 128.943 77.5567C128.896 77.9151 128.809 78.3093 128.684 78.7391C128.532 79.0775 128.351 79.5723 128.139 80.2234C127.928 80.8746 127.729 81.5714 127.543 82.314C127.344 83.0108 127.169 83.7012 127.016 84.3852C126.895 85.0107 126.857 85.4898 126.902 85.8226C126.931 86.4552 126.928 87.1464 126.893 87.8961C126.857 88.6458 127.089 89.2957 127.588 89.8456C128.491 89.1975 129.231 88.4965 129.808 87.7426C130.431 86.9759 130.966 86.1599 131.413 85.2946L131.69 84.6992C131.782 84.3279 131.958 83.6375 132.217 82.6279C132.476 81.6183 132.637 80.6116 132.7 79.6077C132.809 78.5909 132.744 77.7462 132.506 77.0735C132.3 76.3423 131.786 76.0922 130.963 76.3234Z" fill="#452C00"/>
<path d="M75.7624 102.78C75.6125 102.773 75.5311 102.747 75.5183 102.701C75.5054 102.655 75.4661 102.691 75.4004 102.808C75.2762 102.892 75.2176 102.859 75.2248 102.709C75.2648 102.501 75.2227 102.439 75.0985 102.523C75.1642 102.406 75.1714 102.256 75.12 102.073C75.0686 101.89 75.063 101.695 75.103 101.486C75.0773 101.395 75.0188 101.362 74.9274 101.388C74.8231 101.368 74.7582 101.312 74.7325 101.22C74.714 100.979 74.6798 100.594 74.63 100.066C74.6258 99.5246 74.5988 98.9898 74.549 98.4614C74.532 97.8744 74.5114 97.3625 74.4872 96.9255C74.4959 96.4299 74.5332 96.1236 74.5989 96.0066C74.8924 93.0148 75.1695 90.0524 75.4301 87.1192C75.678 84.1403 75.9715 81.1486 76.3107 78.144L76.9459 73.8235C76.9145 73.5365 76.8896 73.2723 76.8711 73.0309C76.8398 72.7439 76.867 72.4897 76.9527 72.2684C77.0056 72.1056 77.0877 71.9592 77.1992 71.8293C77.3563 71.6865 77.4484 71.4881 77.4756 71.2339C76.0302 72.2317 74.4926 73.4281 72.8628 74.8229C71.2658 76.1591 69.8353 77.4733 68.5711 78.7654C68.1455 79.1808 67.7527 79.5377 67.3927 79.8361C67.0785 80.1217 66.5886 80.3086 65.9231 80.397C65.3033 80.4725 64.655 80.3588 63.9781 80.0559C63.2885 79.7073 62.873 79.2816 62.7318 78.7789C62.6419 78.459 62.6791 78.1526 62.8434 77.8599C62.9948 77.5215 63.1984 77.1931 63.4541 76.8747C63.7555 76.5435 64.0634 76.2351 64.3776 75.9496C64.7247 75.6055 65.039 75.32 65.3204 75.093C68.2528 72.5432 71.2631 70.0948 74.3512 67.7479C77.485 65.3881 80.9343 63.1862 84.6992 61.1421C86.2289 60.2686 87.8007 59.4571 89.4146 58.7078C91.0157 57.9128 92.6781 57.2484 94.402 56.7148C95.4402 56.3737 96.4814 56.1305 97.5253 55.9851C98.5564 55.794 99.5054 55.7493 100.372 55.8509C101.272 55.894 102.073 56.1127 102.775 56.507C103.465 56.8556 104.033 57.3863 104.48 58.099C104.59 58.3147 104.657 58.641 104.681 59.078C104.738 59.4565 104.772 59.8413 104.784 60.2326C104.748 60.9823 104.539 61.7313 104.158 62.4795C103.776 63.2277 103.343 63.9659 102.857 64.6941C101.635 66.6645 100.176 68.5785 98.4791 70.436C96.7693 72.2478 95.1087 73.9717 93.4974 75.6079C94.5614 75.3582 95.6254 75.1086 96.6894 74.859C97.799 74.5965 98.9051 74.409 100.008 74.2964C102.174 73.9343 104.062 73.8969 105.671 74.1844C107.268 74.4261 108.346 74.6656 108.906 74.9028C109.524 75.1729 110.135 75.5929 110.739 76.1628C111.33 76.6871 111.83 77.237 112.238 77.8126C112.601 78.4011 112.849 79.0216 112.983 79.6743C113.117 80.327 113.153 80.9824 113.092 81.6408C113.063 82.2406 112.982 82.8303 112.849 83.4101C112.716 83.9898 112.593 84.5175 112.48 84.993C114.506 84.1281 116.505 83.1718 118.479 82.1241C120.486 81.0179 122.512 79.9802 124.557 79.0111C125.818 78.4102 127.086 77.8321 128.36 77.2769C129.679 76.7089 131.012 76.1866 132.357 75.7099C132.423 75.5929 132.821 75.4316 133.553 75.2261C134.271 74.975 134.957 74.7824 135.609 74.6483C136.308 74.5014 136.784 74.4415 137.038 74.4687C137.325 74.4374 137.07 74.583 136.273 74.9055C136.279 75.1012 136.157 75.2832 135.909 75.4517C135.922 75.4974 135.967 75.4845 136.046 75.4131C136.125 75.3418 136.216 75.3161 136.32 75.3361C136.012 75.8173 135.567 76.1642 134.985 76.3768C134.45 76.5766 133.921 76.7992 133.398 77.0447C133.528 77.1562 133.717 77.1277 133.966 76.9592C134.201 76.7451 134.401 76.6644 134.563 76.7173C134.033 77.1127 133.609 77.3554 133.289 77.4453C132.969 77.5352 132.567 77.7714 132.082 78.154L130.857 78.7942C130.431 79.2096 129.735 79.6272 128.768 80.0468C127.788 80.4207 127.004 80.7889 126.416 81.1515C126.122 81.3328 125.821 81.4912 125.514 81.6268C125.207 81.7624 124.883 81.9273 124.543 82.1214C124.099 82.2955 123.452 82.6252 122.602 83.1105C121.753 83.5959 120.801 84.159 119.749 84.7999C118.696 85.4409 117.581 86.1239 116.404 86.8491C115.227 87.5742 114.125 88.303 113.099 89.0353C112.059 89.7219 111.133 90.3765 110.322 90.9989C109.543 91.5628 108.987 92.0396 108.653 92.4294C108.306 92.7735 108.001 93.1797 107.738 93.648C107.462 94.0707 107.186 94.4933 106.911 94.9159C105.954 96.0724 104.986 97.281 104.009 98.5418C103.065 99.744 102.049 100.868 100.962 101.913C99.4209 103.973 97.6546 106.022 95.6633 108.061C93.6721 110.1 91.5638 112.073 89.3384 113.98C87.1258 115.933 84.8875 117.795 82.6236 119.565C80.3725 121.381 78.2164 123.096 76.1552 124.711C75.4354 125.308 74.6798 125.865 73.8885 126.384C73.1557 126.935 72.3937 127.469 71.6024 127.987C70.8368 128.597 70.0127 129.174 69.13 129.718C68.2016 130.274 67.2997 130.75 66.4242 131.143C66.0257 131.305 65.6308 131.391 65.2395 131.402C64.8611 131.459 64.4534 131.5 64.0164 131.524C63.5794 131.548 63.0638 131.644 62.4697 131.811C61.8884 132.023 61.3372 132.08 60.8159 131.98C59.9163 131.937 59.4287 131.605 59.3531 130.985C59.2448 130.424 59.352 129.753 59.675 128.972C60.2865 127.814 60.973 126.659 61.7344 125.509C62.463 124.416 63.2437 123.334 64.0766 122.262C66.1607 119.852 68.1427 117.692 70.0226 115.783C71.9024 113.875 73.7915 112.086 75.6898 110.419C77.601 108.797 79.5643 107.185 81.5797 105.584C83.6408 103.969 85.8654 102.234 88.2536 100.38C90.3204 98.961 92.4457 97.5749 94.6296 96.2216C96.8006 94.8227 98.9616 93.4758 101.113 92.1811C101.381 91.9084 101.702 91.6458 102.075 91.3931C102.447 91.1404 102.827 90.9106 103.212 90.7036C103.598 90.4966 103.99 90.3125 104.388 90.1513C104.82 89.9314 105.16 89.7373 105.408 89.5689C105.585 89.3219 105.773 89.0227 105.97 88.6715C106.2 88.2617 106.397 87.9104 106.561 87.6177C106.804 87.2536 107.05 86.8145 107.301 86.3005C107.551 85.7865 107.771 85.256 107.963 84.7091C108.187 84.1036 108.372 83.5339 108.518 82.9998C108.651 82.4201 108.728 81.9053 108.75 81.4554C108.766 80.81 108.677 80.1445 108.485 79.4589C108.325 78.7149 108.06 78.1236 107.69 77.6851C107.385 77.4751 106.994 77.3136 106.519 77.2007C106.089 77.0749 105.626 77.0076 105.131 76.9989C103.631 76.9272 101.896 77.0695 99.9254 77.426C97.9874 77.724 96.0944 78.1819 94.2464 78.7998C93.3452 79.1023 92.5025 79.4377 91.7184 79.8059C90.9672 80.1156 90.2223 80.4482 89.4839 80.8036C88.6413 81.139 87.87 81.5529 87.1702 82.0454C86.5031 82.4794 85.794 82.8512 85.0428 83.1609C84.1416 83.4634 83.3197 83.5218 82.5772 83.3359C81.8346 83.1501 81.2099 82.8572 80.703 82.4572C80.816 81.9817 81.0424 81.6468 81.3824 81.4527C81.7551 81.2 82.1151 80.9017 82.4622 80.5576C82.7893 80.3178 83.0707 80.0908 83.3064 79.8766C83.5292 79.6168 83.7813 79.3733 84.0627 79.1464C84.5012 78.7766 84.9105 78.3904 85.2904 77.9878C85.6576 77.5395 86.0147 77.1433 86.3618 76.7992C87.1346 76.0397 87.8616 75.293 88.543 74.5591C89.2701 73.8124 89.9972 73.0657 90.7243 72.319C91.0785 71.825 91.4292 71.406 91.7764 71.0619C92.1692 70.705 92.5163 70.3609 92.8177 70.0297C93.4991 69.2958 94.1612 68.4934 94.804 67.6225C95.434 66.7058 96.0605 65.8641 96.6833 65.0974C97.2804 64.2393 97.8547 63.3876 98.4062 62.5423C98.9905 61.6385 99.3178 60.6097 99.3881 59.4558C98.9968 59.4671 98.5562 59.5663 98.0663 59.7532C97.5636 59.8945 97.0673 60.0586 96.5774 60.2455C93.0641 61.4299 89.8691 62.87 86.9926 64.5658C84.116 66.2616 81.4543 68.0203 79.0076 69.8419C79.0261 70.0833 79.0775 70.2661 79.1617 70.3903C79.2788 70.456 79.4323 70.3883 79.6223 70.1869C79.5823 70.3954 79.6665 70.5197 79.875 70.5597C80.1163 70.5412 80.2627 70.6234 80.314 70.8062C80.4168 71.1718 80.4302 71.8337 80.3542 72.7919C80.324 73.7373 80.2673 74.7641 80.1842 75.8722C80.1011 76.9804 79.9951 78.095 79.8663 79.216C79.7247 80.2913 79.6395 81.1288 79.6108 81.7286C79.2561 83.8006 78.8464 85.7648 78.3818 87.6212C77.9172 89.4776 77.5861 91.3704 77.3886 93.2996C77.3013 93.8666 77.1912 94.4399 77.0583 95.0197C76.9582 95.5409 76.8837 96.1535 76.835 96.8575C76.795 97.066 76.7549 97.2745 76.7149 97.483C76.7077 97.6329 76.7005 97.7829 76.6934 97.9328C76.6533 98.1413 76.6361 98.3434 76.6418 98.539C76.6346 98.689 76.6338 98.8618 76.6395 99.0574C76.5338 99.383 76.3695 99.6757 76.1466 99.9356C76.1266 100.04 76.1294 100.138 76.1551 100.229C76.2265 100.308 76.2293 100.405 76.1636 100.522L75.7624 102.78ZM67.3959 125.915C68.9785 124.878 70.3911 123.939 71.6337 123.097C72.8763 122.255 74.0504 121.432 75.1559 120.628C76.3072 119.811 77.4456 118.949 78.5711 118.041C79.7424 117.12 81.0186 116.047 82.3999 114.82C84.2854 113.107 86.1187 111.384 87.9 109.651C89.6812 107.918 91.3546 106.239 92.9202 104.616C94.5315 102.98 95.9956 101.434 97.3127 99.9795C98.6755 98.5118 99.8747 97.1641 100.91 95.9362C99.9291 96.6557 98.7814 97.3973 97.4674 98.1609C96.1534 98.9246 95.0414 99.7055 94.1315 100.504C93.6088 100.749 93.2032 101.06 92.9146 101.437C92.6132 101.768 92.1883 102.011 91.6399 102.165C90.73 102.963 89.8401 103.657 88.9703 104.247C88.1133 104.882 87.2398 105.546 86.35 106.24C85.82 106.636 85.313 107.025 84.8288 107.407C84.3574 107.836 83.8532 108.322 83.3161 108.868C82.4591 109.503 81.8835 109.911 81.5892 110.093C81.3078 110.32 81.1443 110.44 81.0986 110.452C81.0657 110.511 80.9315 110.647 80.6958 110.861C80.4729 111.121 79.998 111.625 79.2709 112.371C78.6224 113.047 78.1017 113.563 77.7089 113.92C77.3161 114.277 76.9397 114.604 76.5798 114.903C76.2655 115.188 75.912 115.509 75.5192 115.866C75.1721 116.21 74.6971 116.714 74.0943 117.376C73.0001 118.571 71.9223 119.737 70.861 120.873C69.8125 122.055 68.7475 123.267 67.6662 124.508C67.4233 124.872 67.1576 125.242 66.869 125.619C66.5347 126.009 66.2362 126.438 65.9733 126.906C66.3646 126.895 66.6716 126.759 66.8945 126.5C67.1173 126.24 67.2845 126.045 67.3959 125.915Z" fill="#452C00"/>
<path d="M138.103 6.44858V7.67178H133.285C133.235 7.40711 133.21 7.15675 133.21 6.92069C133.21 6.4772 133.282 6.0945 133.425 5.77261C133.568 5.45071 133.777 5.16459 134.052 4.91422C134.331 4.66386 134.698 4.40635 135.152 4.14168C135.467 3.9557 135.724 3.7876 135.925 3.63738C136.128 3.48716 136.302 3.2976 136.445 3.0687C136.592 2.8398 136.665 2.57513 136.665 2.2747C136.665 2.08156 136.626 1.90452 136.547 1.74357C136.468 1.57905 136.347 1.4485 136.182 1.35194C136.018 1.25179 135.814 1.20172 135.571 1.20172C135.184 1.20172 134.87 1.3269 134.626 1.57726C134.387 1.82762 134.233 2.16382 134.165 2.58586L133.028 2.04937C133.085 1.67383 133.231 1.33226 133.468 1.02468C133.704 0.713512 134.011 0.466728 134.39 0.284321C134.769 0.101915 135.195 0.0107117 135.667 0.0107117C136.114 0.0107117 136.518 0.0947617 136.88 0.262862C137.244 0.430962 137.532 0.677747 137.743 1.00322C137.954 1.32511 138.06 1.70602 138.06 2.14594C138.06 2.59659 137.978 2.9918 137.813 3.33158C137.652 3.67136 137.414 3.97894 137.1 4.25434C136.788 4.52616 136.375 4.81766 135.86 5.12882C135.574 5.3005 135.356 5.43998 135.206 5.54728C135.059 5.65458 134.932 5.78155 134.825 5.92819C134.721 6.07125 134.651 6.24472 134.616 6.44858H138.103Z" fill="#452C00"/>
<path d="M145.075 6.43787V7.66107H140.258C140.207 7.3964 140.182 7.14604 140.182 6.90998C140.182 6.46649 140.254 6.08379 140.397 5.7619C140.54 5.44 140.749 5.15387 141.025 4.90351C141.304 4.65315 141.67 4.39564 142.124 4.13097C142.439 3.94498 142.697 3.77689 142.897 3.62667C143.101 3.47645 143.274 3.28689 143.417 3.05799C143.564 2.82909 143.637 2.56442 143.637 2.26398C143.637 2.07085 143.598 1.89381 143.519 1.73286C143.441 1.56834 143.319 1.43779 143.155 1.34122C142.99 1.24108 142.786 1.19101 142.543 1.19101C142.157 1.19101 141.842 1.31619 141.599 1.56655C141.359 1.81691 141.205 2.15311 141.137 2.57515L140 2.03866C140.057 1.66312 140.204 1.32155 140.44 1.01396C140.676 0.702801 140.984 0.456016 141.363 0.27361C141.742 0.0912033 142.167 0 142.64 0C143.087 0 143.491 0.08405 143.852 0.25215C144.217 0.42025 144.505 0.667035 144.716 0.992506C144.927 1.3144 145.032 1.69531 145.032 2.13523C145.032 2.58588 144.95 2.98109 144.785 3.32087C144.625 3.66065 144.387 3.96823 144.072 4.24363C143.761 4.51545 143.348 4.80694 142.833 5.11811C142.547 5.28978 142.328 5.42927 142.178 5.53657C142.032 5.64387 141.905 5.77084 141.797 5.91748C141.694 6.06054 141.624 6.23401 141.588 6.43787H145.075Z" fill="#452C00"/>
<path d="M128.531 7.86492C127.597 7.86492 126.909 7.5162 126.465 6.81876C126.026 6.12133 125.806 5.16459 125.806 3.94854C125.806 2.63236 126.04 1.647 126.508 0.992488C126.977 0.33797 127.651 0.0107117 128.531 0.0107117C129.411 0.0107117 130.085 0.33797 130.553 0.992488C131.022 1.647 131.256 2.63236 131.256 3.94854C131.256 5.16459 131.035 6.12133 130.591 6.81876C130.151 7.5162 129.464 7.86492 128.531 7.86492ZM128.542 6.71683C129.35 6.71683 129.754 5.79049 129.754 3.93781C129.754 2.07083 129.35 1.13734 128.542 1.13734C127.719 1.13734 127.308 2.07083 127.308 3.93781C127.308 4.78904 127.404 5.46502 127.597 5.96574C127.791 6.46647 128.105 6.71683 128.542 6.71683Z" fill="#452C00"/>
<path d="M123.933 6.44858V7.67178H119.115C119.065 7.40711 119.04 7.15675 119.04 6.92069C119.04 6.4772 119.112 6.0945 119.255 5.77261C119.398 5.45071 119.607 5.16459 119.882 4.91422C120.161 4.66386 120.528 4.40635 120.982 4.14168C121.297 3.9557 121.554 3.7876 121.755 3.63738C121.959 3.48716 122.132 3.2976 122.275 3.0687C122.422 2.8398 122.495 2.57513 122.495 2.2747C122.495 2.08156 122.456 1.90452 122.377 1.74357C122.298 1.57905 122.177 1.4485 122.012 1.35194C121.848 1.25179 121.644 1.20172 121.401 1.20172C121.014 1.20172 120.7 1.3269 120.456 1.57726C120.217 1.82762 120.063 2.16382 119.995 2.58586L118.858 2.04937C118.915 1.67383 119.062 1.33226 119.298 1.02468C119.534 0.713512 119.841 0.466728 120.22 0.284321C120.599 0.101915 121.025 0.0107117 121.497 0.0107117C121.944 0.0107117 122.348 0.0947617 122.71 0.262862C123.074 0.430962 123.362 0.677747 123.573 1.00322C123.784 1.32511 123.89 1.70602 123.89 2.14594C123.89 2.59659 123.808 2.9918 123.643 3.33158C123.482 3.67136 123.244 3.97894 122.93 4.25434C122.618 4.52616 122.205 4.81766 121.69 5.12882C121.404 5.3005 121.186 5.43998 121.036 5.54728C120.889 5.65458 120.762 5.78155 120.655 5.92819C120.551 6.07125 120.481 6.24472 120.446 6.44858H123.933Z" fill="#452C00"/>
<path d="M112.695 6.07303H113.951V7.67177H112.695V6.07303Z" fill="#452C00"/>
<path d="M111.982 1.40558H110.255V7.67178H108.87V1.40558H107.143V0.193115H111.982V1.40558Z" fill="#452C00"/>
<path d="M103.303 7.78984C102.97 7.78984 102.655 7.7505 102.358 7.67181C102.065 7.59313 101.808 7.49119 101.586 7.36601C101.364 7.24083 101.189 7.11029 101.06 6.97438L101.607 5.84775C101.69 5.95505 101.815 6.0695 101.983 6.1911C102.151 6.31271 102.342 6.41643 102.557 6.50227C102.775 6.5881 102.992 6.63102 103.206 6.63102C103.489 6.63102 103.725 6.55413 103.914 6.40033C104.107 6.24296 104.204 6.023 104.204 5.74045C104.204 5.55804 104.159 5.40067 104.07 5.26834C103.984 5.13243 103.868 5.01261 103.721 4.90889C103.578 4.80159 103.356 4.65674 103.056 4.47434C102.645 4.22397 102.323 4.01117 102.09 3.83591C101.858 3.65708 101.656 3.4246 101.484 3.13848C101.316 2.84877 101.232 2.50005 101.232 2.09232C101.232 1.69532 101.316 1.34481 101.484 1.0408C101.656 0.733216 101.908 0.493584 102.24 0.321907C102.573 0.150231 102.974 0.0643921 103.442 0.0643921C104.204 0.0643921 104.841 0.296871 105.352 0.761828L104.751 1.85627C104.69 1.77043 104.599 1.67744 104.478 1.57729C104.356 1.47357 104.209 1.38594 104.038 1.31441C103.866 1.2393 103.685 1.20175 103.496 1.20175C103.22 1.20175 103.006 1.28222 102.852 1.44317C102.702 1.60054 102.627 1.79904 102.627 2.03867C102.627 2.22108 102.671 2.38381 102.761 2.52688C102.854 2.66637 102.974 2.79155 103.12 2.90242C103.271 3.0133 103.471 3.14384 103.721 3.29406C104.175 3.5623 104.522 3.78763 104.762 3.97003C105.002 4.15244 105.202 4.38492 105.363 4.66747C105.527 4.94645 105.61 5.2898 105.61 5.69753C105.61 6.1303 105.517 6.50405 105.331 6.81879C105.145 7.13353 104.878 7.37496 104.531 7.54306C104.184 7.70758 103.775 7.78984 103.303 7.78984Z" fill="#452C00"/>
<path d="M99.1733 6.45931V7.67178H95.0531V0.193115H98.9587V1.36266H96.3943V3.11162H98.433V4.24897H96.3943V6.45931H99.1733Z" fill="#452C00"/>
</svg>
