<svg width="238" height="133" viewBox="0 0 238 133" fill="none" xmlns="http://www.w3.org/2000/svg">
<path d="M235.817 64.8973H212.833C210.18 64.9975 210.981 63.245 210.73 53.0803C210.73 46.3706 213.484 23.2372 214.937 23.2372H234.665C235.266 23.2372 237.069 23.0869 237.069 24.0884C237.069 24.489 233.864 31.4991 233.213 31.4991C232.362 31.4991 230.86 29.1457 225.952 29.1457C222.497 29.1457 218.842 31.1987 218.842 36.0056C218.842 37.0571 219.042 38.8597 220.444 38.8597C222.047 38.8597 225.602 36.5063 229.808 36.5063C230.409 36.5063 232.061 36.7066 232.061 37.5578C232.061 37.6079 229.257 45.7697 228.656 45.7697C228.156 45.7697 226.253 44.7683 224.3 44.7683C221.746 44.7683 218.041 46.6209 218.041 51.5781C218.041 55.5839 220.144 58.4881 224.35 58.4881C229.307 58.4881 232.362 55.1833 233.563 55.1833C234.315 55.1833 237.669 63.6455 237.669 64.1463C237.669 65.0976 236.418 64.8973 235.817 64.8973Z" fill="#EC4D3C"/>
<path d="M200.967 64.8974H195.709C192.254 64.8974 195.359 61.7929 187.547 45.97C186.896 44.6181 182.49 36.2059 180.888 36.2059C179.636 36.2059 179.986 41.6638 179.986 42.6653C179.986 56.7857 182.039 61.893 182.039 64.4467C182.039 65.0977 181.088 64.8974 180.637 64.8974H175.981C174.729 64.8974 173.227 65.8487 173.227 47.0716C173.227 22.3359 175.83 23.2372 176.682 23.2372H180.637C182.54 23.2372 186.346 27.243 195.709 44.568C195.859 44.8184 196.11 45.4693 196.56 45.4693C197.061 45.4693 196.961 43.3162 196.961 42.6152C196.961 33.2517 194.407 24.9396 194.407 23.788C194.407 23.087 195.509 23.2372 196.46 23.2372H200.266C201.367 23.2372 203.721 22.3359 203.721 47.0716C203.721 65.8487 202.218 64.8974 200.967 64.8974Z" fill="#EC4D3C"/>
<path d="M154.34 65.6484C142.724 65.6484 136.965 57.6368 136.965 46.4707C136.965 34.6536 143.525 22.4861 155.492 22.4861C159.848 22.4861 166.558 24.3387 166.558 29.7465C166.558 32.6507 164.555 34.3031 161.401 34.3031C159.348 34.3031 162.102 29.5963 155.742 29.5963C147.831 29.5963 145.077 38.5593 145.077 45.5193C145.077 50.9772 146.629 56.7355 153.189 56.7355C156.293 56.7355 159.648 55.4337 159.648 51.9286C159.648 47.8727 155.692 47.5222 155.692 46.2203C155.692 45.5694 164.305 42.4649 164.906 42.4649C165.907 42.4649 167.059 54.6826 167.059 56.1847C167.059 62.7442 160.549 65.6484 154.34 65.6484Z" fill="#EC4D3C"/>
<path d="M128.391 64.8973H122.783C122.332 64.8973 120.88 65.0475 120.88 64.2965C120.88 62.8944 124.736 57.8872 124.736 52.179C124.736 49.9257 122.582 49.0745 120.329 49.0745C115.773 49.0745 108.512 49.8756 108.512 55.5839C108.512 59.5396 111.767 63.7957 111.767 64.5468C111.767 64.8473 111.466 64.8973 110.815 64.8973H103.655C101.101 64.8973 100.4 60.3908 100.4 53.8814C100.4 32.4505 115.272 22.4861 117.475 22.4861C119.127 22.4861 132.046 29.6464 132.046 52.88C132.046 66.2493 129.893 64.8973 128.391 64.8973ZM117.675 31.0484C114.971 31.0484 109.614 39.0099 109.614 42.6652C109.614 43.2661 109.964 43.6166 110.565 43.6166C111.466 43.6166 116.323 42.3147 120.73 42.3147C122.482 42.3147 123.283 42.0643 123.283 40.6623C123.283 37.5578 119.578 31.0484 117.675 31.0484Z" fill="#EC4D3C"/>
<path d="M88.8095 33.7523C87.5577 33.7523 85.6049 29.2458 80.3974 29.2458C77.8938 29.2458 74.6891 30.4976 74.6891 33.4018C74.6891 37.007 79.6463 38.4091 82.4003 39.3604C92.9155 42.8655 95.0686 47.9228 95.0686 52.6797C95.0686 58.4881 90.9126 65.6484 80.3473 65.6484C73.237 65.6484 66.0266 61.8429 66.0266 53.8814C66.0266 49.6253 68.5803 47.1217 69.081 47.1217C69.9323 47.1217 69.081 57.2863 79.8466 57.2863C83.6521 57.2863 86.9569 55.6339 86.9569 52.5295C86.9569 48.8742 82.4503 47.372 79.5461 46.4707C68.5803 43.0658 67.3786 38.1086 67.3786 33.8525C67.3786 29.6464 70.2327 22.4861 80.3974 22.4861C87.6579 22.4861 92.8153 26.3416 92.8153 27.7937C92.8153 29.1957 90.2116 33.7523 88.8095 33.7523Z" fill="#EC4D3C"/>
<path d="M57.0517 64.8973H51.4436C50.993 64.8973 49.5409 65.0475 49.5409 64.2965C49.5409 62.8944 53.3964 57.8872 53.3964 52.179C53.3964 49.9257 51.2433 49.0745 48.9901 49.0745C44.4335 49.0745 37.173 49.8756 37.173 55.5839C37.173 59.5396 40.4277 63.7957 40.4277 64.5468C40.4277 64.8473 40.1273 64.8973 39.4763 64.8973H32.316C29.7623 64.8973 29.0613 60.3908 29.0613 53.8814C29.0613 32.4505 43.9328 22.4861 46.1359 22.4861C47.7883 22.4861 60.707 29.6464 60.707 52.88C60.707 66.2493 58.5539 64.8973 57.0517 64.8973ZM46.3362 31.0484C43.6323 31.0484 38.2746 39.0099 38.2746 42.6652C38.2746 43.2661 38.6251 43.6166 39.226 43.6166C40.1273 43.6166 44.9843 42.3147 49.3906 42.3147C51.1432 42.3147 51.9443 42.0643 51.9443 40.6623C51.9443 37.5578 48.239 31.0484 46.3362 31.0484Z" fill="#EC4D3C"/>
<path d="M22.813 64.8973H2.43361C-0.22023 64.9975 0.580928 63.2449 0.330566 53.0802C0.330566 46.3705 3.08455 23.2371 4.53664 23.2371H12.4981C12.8487 23.2371 13.4495 23.3373 13.4495 24.2386C13.4495 25.3402 7.64113 36.1057 7.64113 49.9257C7.64113 56.8357 10.6455 58.4881 13.3995 58.4881C18.0061 58.4881 20.8102 54.2319 22.062 54.2319C23.0133 54.2319 24.9662 63.8959 24.9662 64.1462C24.9662 65.1477 23.4139 64.8973 22.813 64.8973Z" fill="#EC4D3C"/>
<path d="M180.319 67.3563C180.411 67.3306 180.525 67.2985 180.662 67.2599C180.786 67.1757 180.927 67.0622 181.084 66.9195L181.495 66.8039L181.682 66.6776L182.367 66.4849C183.227 66.7365 183.594 67.0772 183.468 67.507C183.375 67.8783 183.09 68.1802 182.613 68.4129C182.22 68.7698 181.674 69.1945 180.974 69.687C180.32 70.1667 179.643 70.6528 178.943 71.1453C178.276 71.5792 177.671 71.9711 177.128 72.3208C176.586 72.6706 176.269 72.8583 176.177 72.884C176.132 72.8968 176.092 72.9325 176.059 72.991C176.059 72.991 176.014 73.0039 175.922 73.0296C175.844 73.1009 175.782 73.143 175.736 73.1559C175.456 74.6153 175.203 75.6477 174.979 76.2532C174.787 76.8001 174.593 77.2492 174.396 77.6004L174.081 78.0587C173.274 79.2224 172.565 80.2104 171.955 81.0229C171.345 81.8353 170.801 82.5306 170.322 83.1088C169.89 83.6742 169.5 84.129 169.152 84.4731C168.818 84.8628 168.51 85.1712 168.229 85.3982L168.21 85.3297C167.437 86.0892 166.711 86.6631 166.031 87.0514C165.397 87.4268 164.897 87.6658 164.531 87.7686C163.617 88.0254 162.942 87.9931 162.507 87.6717C162.039 87.4088 161.721 86.9803 161.554 86.3862C161.31 85.5178 161.477 84.5339 162.056 83.4345C162.589 82.3478 163.295 81.262 164.173 80.1769C165.097 79.0789 166.116 78.0531 167.229 77.0995C168.328 76.1001 169.3 75.2599 170.145 74.579C170.976 73.8523 171.572 73.3398 171.932 73.0414C172.324 72.6845 172.266 72.6516 171.756 72.9428L171.462 72.9513C170.868 73.1182 170.081 73.3886 169.102 73.7625C168.109 74.0907 167.188 74.4975 166.338 74.9828C165.907 75.2026 165.498 75.416 165.113 75.623C164.714 75.7843 164.182 75.9091 163.517 75.9975L163.585 75.9782C163.539 75.991 163.494 76.0039 163.448 76.0167C163.435 75.971 163.406 75.9546 163.36 75.9674C163.269 75.9931 163.125 76.0088 162.93 76.0145C162.767 75.9616 162.656 75.9187 162.598 75.8858L162.666 75.8666C162.211 75.6494 161.87 75.4001 161.643 75.1187C161.416 74.8373 161.264 74.5595 161.186 74.2853C161.109 74.0111 161.091 73.7698 161.131 73.5613C161.204 73.2943 161.267 73.0793 161.32 72.9166C161.445 72.4867 161.663 72.0313 161.971 71.5501C162.28 71.0689 162.641 70.4249 163.056 69.6182L163.203 69.3547C163.649 68.835 164.105 68.2632 164.571 67.6393C165.036 67.0153 165.538 66.4306 166.075 65.8853C166.599 65.2942 167.143 64.7716 167.705 64.3177C168.301 63.8051 168.912 63.4361 169.539 63.2107L169.981 62.9387C170.255 62.8617 170.571 62.8468 170.93 62.894C171.275 62.8955 171.575 62.9099 171.829 62.9371C172.173 63.2842 172.332 63.5848 172.304 63.839C172.323 64.0804 172.254 64.2724 172.097 64.4152L171.458 65.0384L171.34 65.1454C171.242 65.3211 171.068 65.4931 170.82 65.6616C170.885 65.5445 170.807 65.6159 170.584 65.8757C170.394 66.077 170.197 66.2555 169.995 66.4111C169.732 66.8794 169.306 67.2949 168.718 67.6575C168.129 68.02 167.668 68.3962 167.334 68.786L166.764 69.3899L165.966 70.5015L165.484 71.1547C164.993 71.6872 164.596 72.2919 164.293 72.9687C164.998 72.6719 165.629 72.3714 166.185 72.0674C166.799 71.7962 167.488 71.5286 168.252 71.2646C169.049 70.9421 169.842 70.6945 170.632 70.5219C171.056 70.4521 171.532 70.3922 172.061 70.3424C172.589 70.2925 173.068 70.3305 173.498 70.4563L173.43 70.4755C174.009 70.6085 174.306 70.6978 174.318 70.7435C174.377 70.7764 174.429 70.7864 174.475 70.7735L174.582 70.8914C174.615 70.8329 174.654 70.7972 174.7 70.7843C174.745 70.7715 174.791 70.7586 174.837 70.7458C174.915 70.6744 174.978 70.6323 175.023 70.6195L175.327 70.386L179.79 67.5789C179.927 67.5404 180.104 67.4662 180.319 67.3563ZM166.546 80.9893C166.481 81.1064 166.277 81.4348 165.936 81.9745C165.594 82.5143 165.381 82.8948 165.295 83.1161C164.993 83.4474 164.744 83.7886 164.547 84.1399C164.396 84.4783 164.293 84.7289 164.241 84.8917C164.168 85.1587 164.262 85.2308 164.523 85.1081C164.797 85.031 165.115 84.8433 165.474 84.545C165.847 84.2923 166.207 83.9939 166.554 83.6498C166.96 83.3386 167.218 83.118 167.33 82.9881L167.261 83.0074L168.706 81.5661C169.774 80.2797 170.545 79.2495 171.018 78.4757C171.478 77.6561 171.856 76.81 172.154 75.9376L171.408 76.4429C170.217 77.468 169.346 78.2303 168.796 78.73C168.233 79.184 167.778 79.583 167.431 79.9271L166.733 80.863L166.546 80.9893Z" fill="#452C00"/>
<path d="M151.712 75.69C151.659 75.8528 151.406 76.269 150.953 76.9387C150.533 77.5498 150.034 78.2323 149.457 78.9861C148.926 79.7272 148.388 80.4454 147.844 81.1407C147.332 81.7775 146.982 82.1965 146.792 82.3978C146.614 82.6448 146.294 82.9075 145.83 83.1859C145.398 83.4057 144.893 83.4491 144.313 83.3162C142.929 83.6557 141.717 83.5526 140.676 83.0068C140.474 82.8168 140.293 82.5225 140.132 82.1241C140.016 81.7128 139.953 81.3115 139.942 80.9202C139.956 80.6203 139.97 80.3204 139.985 80.0205C140.032 79.6621 140.063 79.3329 140.077 79.033C140.143 78.9159 140.163 78.8117 140.137 78.7203C140.111 78.6289 140.115 78.5539 140.148 78.4954C140.168 78.3911 140.194 78.3097 140.227 78.2512C140.26 78.1926 140.286 78.1112 140.306 78.007C140.346 77.7985 140.37 77.6193 140.377 77.4694C140.372 77.2737 140.412 77.0652 140.497 76.8439C140.557 76.5312 140.65 76.1599 140.776 75.7301C140.889 75.2546 141.002 74.779 141.115 74.3035C141.274 73.8152 141.416 73.3561 141.542 72.9263C141.713 72.4836 141.835 72.1288 141.908 71.8617C142.06 71.5233 142.338 71.1985 142.744 70.8873C143.182 70.5175 143.708 70.3699 144.321 70.4443C144.829 70.4987 145.262 70.7223 145.618 71.1151C146.008 71.4493 146.147 71.8542 146.034 72.3298L145.749 72.6317C145.696 72.7945 145.639 73.0323 145.579 73.345C145.519 73.6577 145.436 73.9769 145.331 74.3025C145.271 74.6152 145.211 74.9279 145.15 75.2406C145.078 75.5077 145.025 75.6705 144.992 75.729C144.99 76.0746 144.924 76.3645 144.792 76.5986C144.648 76.7871 144.621 77.0413 144.711 77.3612C144.572 77.7453 144.486 78.1395 144.451 78.5436C144.45 78.8892 144.415 79.2933 144.348 79.756C144.465 79.8217 144.586 79.8125 144.71 79.7282C144.822 79.5983 144.887 79.4812 144.907 79.377C146.172 78.0849 147.296 76.7335 148.28 75.3228C149.31 73.8993 150.34 72.4758 151.37 71.0523C151.449 70.9809 151.481 70.9224 151.469 70.8767C151.456 70.831 151.482 70.7496 151.548 70.6325L151.901 70.3113C151.812 69.9913 151.764 69.7336 151.758 69.5379C151.785 69.2837 151.813 69.0295 151.84 68.7754C152.233 68.4184 152.703 68.1629 153.252 68.0088C153.846 67.8419 154.426 67.8021 154.993 67.8893C155.344 68.0865 155.601 68.3843 155.762 68.7828C155.969 69.1684 156.084 69.5797 156.109 70.0167C156.179 70.4409 156.203 70.8779 156.181 71.3277C156.192 71.719 156.214 72.0582 156.245 72.3452C156.238 74.0732 156.208 75.6348 156.156 77.03C156.15 78.4123 156.115 79.7783 156.05 81.1278C156.291 81.1093 156.445 81.0415 156.511 80.9244C156.576 80.8073 156.681 80.6546 156.826 80.4661C157.841 79.3425 158.706 78.3844 159.421 77.592C160.135 76.7997 160.81 76.0429 161.445 75.3219C162.114 74.5424 162.828 73.75 163.588 72.9448C164.335 72.0938 165.262 71.0937 166.369 69.9444C167.476 68.7951 168.59 67.6686 169.71 66.565C170.862 65.4029 172.168 64.3457 173.626 63.3936C173.606 63.4978 173.534 63.592 173.41 63.6763C173.318 63.7019 173.24 63.7733 173.174 63.8904C173.337 63.9433 173.491 63.8755 173.635 63.687C173.825 63.4857 174.024 63.4051 174.233 63.4451C174.231 63.7907 174.06 64.0606 173.72 64.2547C173.413 64.3903 173.109 64.6237 172.808 64.9549C172.722 65.1763 172.561 65.394 172.325 65.6082C172.135 65.8095 171.939 65.9879 171.736 66.1435C171.795 66.1764 171.824 66.1928 171.824 66.1928C171.49 66.5826 171.087 66.9916 170.616 67.4199C170.177 67.7897 169.895 68.1895 169.769 68.6193C169.645 68.7035 169.566 68.7749 169.533 68.8334C169.501 68.892 169.432 68.9113 169.328 68.8912C168.882 69.4109 168.42 69.9599 167.941 70.5382C167.496 71.0579 167.05 71.5776 166.604 72.0973C166.172 72.6627 165.883 73.0396 165.739 73.2281C165.627 73.358 165.539 73.4815 165.473 73.5986C165.394 73.67 165.283 73.7999 165.139 73.9884C164.982 74.1311 164.664 74.4916 164.185 75.0699C164.067 75.3497 163.932 75.4861 163.782 75.4789C163.678 75.4589 163.445 75.7709 163.084 76.4148C163.084 76.4148 162.917 76.6097 162.582 76.9995C162.235 77.3436 161.855 77.7462 161.443 78.2073C161.03 78.6685 160.646 79.1461 160.292 79.6401C159.925 80.0884 159.698 80.4233 159.613 80.6446C159.521 80.6703 159.292 80.9073 158.925 81.3556C158.603 81.7911 158.249 82.2851 157.862 82.8377C157.475 83.3902 157.133 83.9299 156.838 84.4568C156.575 84.9252 156.44 85.2343 156.432 85.3842C156.36 85.6513 156.061 86.0803 155.537 86.6714C155.025 87.3082 154.677 87.9979 154.491 88.7404C154.362 89.8614 154.171 91.0245 153.918 92.2298C153.711 93.4221 153.468 94.5752 153.189 95.6891C152.91 96.8029 152.635 97.8417 152.363 98.8056C152.092 99.7695 151.896 100.564 151.776 101.19C151.743 101.248 151.594 101.684 151.33 102.498C151.065 103.312 150.686 104.331 150.192 105.555C149.743 106.766 149.228 108.094 148.648 109.539C148.068 110.984 147.498 112.377 146.938 113.718C146.332 115.071 145.756 116.268 145.21 117.309C144.619 118.363 144.14 119.114 143.772 119.563C143.235 120.108 142.845 120.563 142.603 120.927C142.36 121.291 142.013 121.635 141.561 121.959C141.181 122.362 140.72 122.738 140.177 123.087C139.601 123.496 139.029 123.829 138.461 124.087C137.905 124.391 137.393 124.585 136.923 124.668C136.42 124.809 136.075 124.807 135.886 124.663C135.952 124.546 135.893 124.513 135.71 124.564C135.528 124.616 135.404 124.527 135.34 124.299L135.066 124.376C134.643 124.1 134.329 123.597 134.124 122.865C133.885 122.193 133.728 121.546 133.653 120.927C133.497 120.724 133.483 120.235 133.61 119.459C133.692 118.697 133.872 117.758 134.151 116.645C134.43 115.531 134.758 114.329 135.135 113.04C135.512 111.75 135.909 110.529 136.325 109.377C136.741 108.225 137.137 107.177 137.512 106.233C137.901 105.335 138.21 104.681 138.44 104.271C138.776 103.535 139.378 102.43 140.245 100.953C141.112 99.4768 142.035 97.9354 143.014 96.3291C144.005 94.7685 144.97 93.2892 145.909 91.8914C146.906 90.5264 147.689 89.542 148.259 88.938C148.214 88.9509 148.184 88.9344 148.172 88.8887C148.217 88.8759 148.286 88.8566 148.377 88.831C148.332 88.8438 148.309 88.8502 148.309 88.8502C148.322 88.8959 148.305 88.9252 148.259 88.938C148.292 88.8795 148.332 88.8438 148.377 88.831L148.446 88.8117L150.736 86.1711C151.018 84.3661 151.251 82.6489 151.434 81.0195C151.65 79.3316 151.743 77.5551 151.712 75.69ZM144.5 98.7222C144.113 99.2748 143.607 100.107 142.982 101.219C142.371 102.378 141.729 103.692 141.058 105.163C140.386 106.633 139.734 108.173 139.101 109.78C138.435 111.447 137.887 113.006 137.457 114.458C136.994 115.969 136.704 117.308 136.588 118.475C136.426 119.654 136.52 120.515 136.87 121.058C136.96 121.378 137.086 121.564 137.249 121.617C137.582 121.573 137.85 121.473 138.053 121.318C138.21 121.175 138.383 121.003 138.573 120.801C138.913 120.607 139.149 120.393 139.28 120.159C139.366 119.938 139.572 119.707 139.9 119.467C140.15 118.953 140.4 118.439 140.65 117.925C140.913 117.457 141.169 116.966 141.419 116.452C141.715 115.925 141.998 115.352 142.268 114.734C142.538 114.116 142.785 113.504 143.009 112.898L144.135 110.585L145.415 106.453C145.447 106.395 145.457 106.343 145.445 106.297C145.432 106.251 145.458 106.17 145.524 106.053L145.94 104.9C146.025 104.679 146.263 103.947 146.654 102.703C147.044 101.459 147.448 100.088 147.865 98.5902C148.341 97.1252 148.755 95.7022 149.106 94.3214C149.458 92.9405 149.655 91.973 149.696 91.419L144.5 98.7222Z" fill="#452C00"/>
<path d="M137.154 78.2271C137.29 78.5342 137.37 78.9062 137.394 79.3432C137.405 79.7345 137.352 80.0701 137.233 80.3499C137.206 80.6041 137.175 80.9333 137.141 81.3374C137.106 81.7416 137.036 82.1064 136.93 82.432C136.655 82.8546 136.447 83.4308 136.307 84.1605C136.199 84.8317 135.995 85.3329 135.694 85.6641C135.694 85.6641 135.536 85.9797 135.22 86.6108C134.891 87.1962 134.484 87.853 133.998 88.5812C133.5 89.2637 132.943 89.9133 132.327 90.5301C131.757 91.134 131.208 91.4609 130.68 91.5108C130.025 91.9904 129.349 92.3037 128.651 92.4506C127.94 92.5518 127.271 92.5424 126.646 92.4223C126.007 92.2564 125.435 91.9735 124.928 91.5735C124.408 91.1279 124.006 90.5751 123.722 89.9152C123.651 89.8367 123.583 89.6832 123.519 89.4546C123.442 89.1804 123.459 88.9784 123.571 88.8484C123.344 88.5671 123.247 88.2243 123.282 87.8202C123.362 87.4032 123.363 87.0576 123.286 86.7834L123.538 82.9405C123.662 82.8563 123.711 82.7685 123.686 82.6771C123.693 82.5271 123.742 82.4393 123.834 82.4136C123.928 81.6968 124.114 80.9542 124.391 80.186C124.714 79.4049 125.05 78.6696 125.398 77.9799C125.57 77.5372 125.758 77.0653 125.962 76.5641C126.212 76.0501 126.475 75.5817 126.751 75.1591C127.072 74.7236 127.426 74.4024 127.811 74.1954C128.197 73.9884 128.618 73.9935 129.073 74.2107C129.556 74.1737 129.983 74.2017 130.354 74.2946C130.425 74.3732 130.471 74.3603 130.491 74.2561C130.557 74.139 130.642 74.0905 130.746 74.1105C130.825 74.0391 130.985 73.9942 131.226 73.9757C131.513 73.9443 131.807 73.9358 132.106 73.9502C132.406 73.9645 132.683 73.9853 132.938 74.0125C133.192 74.0397 133.377 74.0862 133.494 74.1519L134.45 74.919C134.96 74.6278 135.76 74.2303 136.851 73.7265C137.988 73.2098 139.184 72.726 140.437 72.275C141.679 71.7784 142.854 71.3988 143.964 71.1363C145.061 70.8282 145.905 70.7634 146.498 70.9421C146.556 70.9749 146.608 70.9849 146.654 70.9721C146.746 70.9464 146.821 70.95 146.879 70.9829C146.938 71.0157 146.99 71.0257 147.035 71.0129C147.297 70.8901 147.44 70.8745 147.466 70.9659C147.537 71.0444 147.665 71.058 147.847 71.0067C148.127 71.1253 148.231 71.3181 148.158 71.5851C148.072 71.8065 147.951 71.9885 147.793 72.1313C147.304 72.3182 147.003 72.4767 146.892 72.6066C146.826 72.7237 146.737 72.8472 146.626 72.9771C146.547 73.0485 146.377 73.1455 146.116 73.2683C145.842 73.3453 145.316 73.493 144.539 73.7113C143.899 73.8911 143.227 74.1294 142.521 74.4262C141.861 74.7103 141.192 75.0464 140.512 75.4347C139.832 75.8229 139.175 76.2048 138.541 76.5802C137.939 76.8971 137.429 77.1883 137.011 77.4538C137.017 77.6494 137.039 77.8158 137.077 77.9529C137.103 78.0443 137.129 78.1357 137.154 78.2271ZM131.294 76.3234C131.04 76.2962 130.798 76.3147 130.57 76.3789C130.341 76.4431 130.11 76.4095 129.876 76.2781L129.728 76.5415C129.518 76.8471 129.367 77.1855 129.274 77.5567C129.226 77.9152 129.14 78.3093 129.014 78.7391C128.863 79.0775 128.681 79.5723 128.47 80.2235C128.258 80.8746 128.059 81.5714 127.874 82.314C127.675 83.0108 127.499 83.7013 127.346 84.3853C127.226 85.0107 127.188 85.4898 127.232 85.8226C127.262 86.4552 127.259 87.1464 127.223 87.8961C127.187 88.6459 127.419 89.2957 127.919 89.8456C128.822 89.1975 129.561 88.4965 130.139 87.7427C130.761 86.9759 131.296 86.1599 131.744 85.2946L132.02 84.6992C132.113 84.3279 132.289 83.6375 132.548 82.6279C132.806 81.6184 132.967 80.6116 133.03 79.6077C133.139 78.5909 133.074 77.7462 132.836 77.0735C132.631 76.3423 132.117 76.0923 131.294 76.3234Z" fill="#452C00"/>
<path d="M76.0929 102.78C75.9429 102.773 75.8615 102.747 75.8487 102.701C75.8359 102.655 75.7966 102.691 75.7309 102.808C75.6066 102.892 75.5481 102.859 75.5552 102.709C75.5953 102.501 75.5532 102.439 75.4289 102.523C75.4946 102.406 75.5018 102.256 75.4504 102.073C75.3991 101.89 75.3934 101.695 75.4334 101.486C75.4078 101.395 75.3492 101.362 75.2578 101.388C75.1536 101.368 75.0886 101.312 75.0629 101.22C75.0444 100.979 75.0103 100.594 74.9604 100.066C74.9563 99.5246 74.9293 98.9898 74.8794 98.4614C74.8624 97.8744 74.8419 97.3625 74.8177 96.9255C74.8264 96.4299 74.8636 96.1236 74.9293 96.0066C75.2228 93.0148 75.4999 90.0524 75.7606 87.1192C76.0084 84.1403 76.3019 81.1486 76.6411 78.144L77.2763 73.8235C77.245 73.5365 77.22 73.2723 77.2015 73.0309C77.1702 72.7439 77.1974 72.4897 77.2831 72.2684C77.336 72.1056 77.4182 71.9592 77.5296 71.8293C77.6867 71.6865 77.7789 71.4881 77.8061 71.2339C76.3606 72.2317 74.823 73.4281 73.1932 74.8229C71.5963 76.1591 70.1657 77.4733 68.9016 78.7654C68.4759 79.1808 68.0831 79.5377 67.7231 79.8361C67.4089 80.1217 66.919 80.3086 66.2535 80.397C65.6337 80.4725 64.9854 80.3588 64.3086 80.0559C63.6189 79.7073 63.2035 79.2816 63.0622 78.7789C62.9723 78.459 63.0095 78.1526 63.1738 77.8599C63.3253 77.5215 63.5289 77.1931 63.7846 76.8747C64.086 76.5435 64.3938 76.2351 64.7081 75.9496C65.0552 75.6055 65.3694 75.32 65.6508 75.093C68.5833 72.5432 71.5936 70.0948 74.6816 67.7479C77.8154 65.3881 81.2648 63.1862 85.0297 61.1421C86.5594 60.2686 88.1312 59.4571 89.7451 58.7078C91.3462 57.9128 93.0086 57.2484 94.7324 56.7148C95.7707 56.3737 96.8118 56.1305 97.8558 55.9851C98.8869 55.794 99.8358 55.7493 100.703 55.8509C101.602 55.894 102.403 56.1127 103.106 56.507C103.796 56.8556 104.364 57.3863 104.811 58.099C104.921 58.3147 104.988 58.641 105.012 59.078C105.069 59.4565 105.103 59.8413 105.114 60.2326C105.078 60.9823 104.87 61.7313 104.488 62.4795C104.107 63.2277 103.673 63.9659 103.187 64.6941C101.966 66.6645 100.507 68.5785 98.8096 70.436C97.0997 72.2478 95.4392 73.9717 93.8279 75.6079C94.8919 75.3582 95.9558 75.1086 97.0198 74.859C98.1295 74.5965 99.2356 74.409 100.338 74.2964C102.505 73.9343 104.392 73.8969 106.002 74.1844C107.598 74.4261 108.676 74.6656 109.236 74.9028C109.854 75.1729 110.466 75.5929 111.07 76.1628C111.661 76.6871 112.16 77.237 112.569 77.8126C112.931 78.4011 113.179 79.0216 113.314 79.6743C113.448 80.327 113.484 80.9824 113.422 81.6408C113.394 82.2406 113.313 82.8303 113.18 83.4101C113.047 83.9898 112.924 84.5175 112.811 84.993C114.836 84.1281 116.836 83.1718 118.81 82.1241C120.816 81.0179 122.842 79.9802 124.887 79.0111C126.149 78.4102 127.416 77.8321 128.69 77.2769C130.01 76.7089 131.342 76.1866 132.688 75.7099C132.753 75.5929 133.152 75.4316 133.883 75.2261C134.602 74.975 135.287 74.7824 135.94 74.6483C136.638 74.5014 137.114 74.4415 137.369 74.4687C137.656 74.4374 137.401 74.583 136.604 74.9055C136.609 75.1012 136.488 75.2832 136.239 75.4517C136.252 75.4974 136.298 75.4845 136.376 75.4131C136.455 75.3418 136.546 75.3161 136.651 75.3361C136.342 75.8173 135.897 76.1642 135.316 76.3768C134.78 76.5766 134.251 76.7992 133.728 77.0447C133.858 77.1562 134.048 77.1277 134.296 76.9592C134.532 76.7451 134.731 76.6644 134.894 76.7173C134.364 77.1127 133.939 77.3554 133.619 77.4453C133.299 77.5352 132.897 77.7714 132.413 78.154L131.187 78.7942C130.762 79.2096 130.065 79.6272 129.099 80.0468C128.119 80.4207 127.335 80.7889 126.746 81.1515C126.452 81.3328 126.151 81.4912 125.844 81.6268C125.537 81.7624 125.214 81.9273 124.874 82.1214C124.43 82.2955 123.783 82.6252 122.933 83.1105C122.083 83.5959 121.132 84.159 120.079 84.7999C119.026 85.4409 117.912 86.1239 116.735 86.8491C115.558 87.5742 114.456 88.303 113.429 89.0353C112.389 89.7219 111.464 90.3765 110.652 90.9989C109.874 91.5628 109.317 92.0396 108.983 92.4294C108.636 92.7735 108.331 93.1797 108.068 93.648C107.793 94.0707 107.517 94.4933 107.241 94.9159C106.284 96.0724 105.317 97.281 104.34 98.5418C103.395 99.744 102.38 100.868 101.293 101.913C99.7514 103.973 97.985 106.022 95.9938 108.061C94.0025 110.1 91.8942 112.073 89.6688 113.98C87.4562 115.933 85.218 117.795 82.954 119.565C80.7029 121.381 78.5468 123.096 76.4857 124.711C75.7658 125.308 75.0102 125.865 74.2189 126.384C73.4862 126.935 72.7242 127.469 71.9329 127.987C71.1673 128.597 70.3431 129.174 69.4605 129.718C68.5321 130.274 67.6301 130.75 66.7546 131.143C66.3562 131.305 65.9613 131.391 65.57 131.402C65.1915 131.459 64.7838 131.5 64.3468 131.524C63.9098 131.548 63.3943 131.644 62.8001 131.811C62.2189 132.023 61.6676 132.08 61.1464 131.98C60.2467 131.937 59.7591 131.605 59.6836 130.985C59.5752 130.424 59.6825 129.753 60.0054 128.972C60.6169 127.814 61.3034 126.659 62.0649 125.509C62.7935 124.416 63.5742 123.334 64.407 122.262C66.4912 119.852 68.4732 117.692 70.353 115.783C72.2328 113.875 74.1219 112.086 76.0202 110.419C77.9314 108.797 79.8947 107.185 81.9101 105.584C83.9712 103.969 86.1959 102.234 88.5841 100.38C90.6509 98.961 92.7762 97.5749 94.96 96.2216C97.1311 94.8227 99.2921 93.4758 101.443 92.1811C101.712 91.9084 102.032 91.6458 102.405 91.3931C102.778 91.1404 103.157 90.9106 103.543 90.7036C103.928 90.4966 104.32 90.3125 104.719 90.1513C105.15 89.9314 105.49 89.7373 105.739 89.5689C105.916 89.3219 106.103 89.0227 106.3 88.6715C106.53 88.2617 106.727 87.9104 106.892 87.6177C107.134 87.2536 107.381 86.8145 107.631 86.3005C107.881 85.7865 108.102 85.256 108.293 84.7091C108.518 84.1036 108.703 83.5339 108.849 82.9998C108.982 82.4201 109.059 81.9053 109.08 81.4554C109.096 80.81 109.008 80.1445 108.815 79.4589C108.655 78.7149 108.391 78.1236 108.021 77.6851C107.715 77.4751 107.325 77.3136 106.849 77.2007C106.419 77.0749 105.957 77.0076 105.461 76.9989C103.962 76.9272 102.227 77.0695 100.256 77.426C98.3179 77.724 96.4249 78.1819 94.5768 78.7998C93.6756 79.1023 92.833 79.4377 92.0489 79.8059C91.2976 80.1156 90.5528 80.4482 89.8144 80.8036C88.9717 81.139 88.2005 81.5529 87.5006 82.0454C86.8336 82.4794 86.1245 82.8512 85.3732 83.1609C84.472 83.4634 83.6502 83.5218 82.9076 83.3359C82.1651 83.1501 81.5404 82.8572 81.0335 82.4572C81.1464 81.9817 81.3729 81.6468 81.7128 81.4527C82.0856 81.2 82.4455 80.9017 82.7926 80.5576C83.1197 80.3178 83.4011 80.0908 83.6368 79.8766C83.8596 79.6168 84.1118 79.3733 84.3932 79.1464C84.8317 78.7766 85.2409 78.3904 85.6209 77.9878C85.988 77.5395 86.3451 77.1433 86.6922 76.7992C87.465 76.0397 88.1921 75.293 88.8735 74.5591C89.6005 73.8124 90.3276 73.0657 91.0547 72.319C91.409 71.825 91.7597 71.406 92.1068 71.0619C92.4996 70.705 92.8467 70.3609 93.1481 70.0297C93.8295 69.2958 94.4916 68.4934 95.1345 67.6225C95.7645 66.7058 96.3909 65.8641 97.0137 65.0974C97.6109 64.2393 98.1852 63.3876 98.7366 62.5423C99.3209 61.6385 99.6482 60.6097 99.7185 59.4558C99.3272 59.4671 98.8866 59.5663 98.3968 59.7532C97.894 59.8945 97.3977 60.0586 96.9079 60.2455C93.3945 61.4299 90.1996 62.87 87.323 64.5658C84.4464 66.2616 81.7848 68.0203 79.338 69.8419C79.3565 70.0833 79.4079 70.2661 79.4921 70.3903C79.6092 70.456 79.7627 70.3883 79.9527 70.1869C79.9127 70.3954 79.9969 70.5197 80.2054 70.5597C80.4468 70.5412 80.5931 70.6234 80.6445 70.8062C80.7472 71.1718 80.7606 71.8337 80.6847 72.7919C80.6544 73.7373 80.5978 74.7641 80.5147 75.8722C80.4315 76.9804 80.3256 78.095 80.1968 79.216C80.0551 80.2913 79.9699 81.1288 79.9412 81.7286C79.5865 83.8006 79.1769 85.7648 78.7123 87.6212C78.2477 89.4776 77.9166 91.3704 77.719 93.2996C77.6318 93.8666 77.5217 94.4399 77.3887 95.0197C77.2886 95.5409 77.2142 96.1535 77.1655 96.8575C77.1254 97.066 77.0854 97.2745 77.0453 97.483C77.0382 97.6329 77.031 97.7829 77.0238 97.9328C76.9838 98.1413 76.9666 98.3434 76.9722 98.539C76.9651 98.689 76.9643 98.8618 76.97 99.0574C76.8642 99.383 76.6999 99.6757 76.477 99.9356C76.457 100.04 76.4599 100.138 76.4855 100.229C76.5569 100.308 76.5598 100.405 76.494 100.522L76.0929 102.78ZM67.7263 125.915C69.3089 124.878 70.7215 123.939 71.9641 123.097C73.2068 122.255 74.3809 121.432 75.4864 120.628C76.6376 119.811 77.776 118.949 78.9016 118.041C80.0728 117.12 81.3491 116.047 82.7303 114.82C84.6158 113.107 86.4492 111.384 88.2304 109.651C90.0117 107.918 91.6851 106.239 93.2506 104.616C94.8619 102.98 96.3261 101.434 97.6431 99.9795C99.0059 98.5118 100.205 97.1641 101.241 95.9362C100.259 96.6557 99.1119 97.3973 97.7978 98.1609C96.4838 98.9246 95.3719 99.7055 94.462 100.504C93.9392 100.749 93.5336 101.06 93.245 101.437C92.9436 101.768 92.5187 102.011 91.9703 102.165C91.0604 102.963 90.1705 103.657 89.3007 104.247C88.4437 104.882 87.5703 105.546 86.6804 106.24C86.1505 106.636 85.6434 107.025 85.1592 107.407C84.6878 107.836 84.1836 108.322 83.6465 108.868C82.7895 109.503 82.2139 109.911 81.9197 110.093C81.6383 110.32 81.4747 110.44 81.429 110.452C81.3962 110.511 81.2619 110.647 81.0262 110.861C80.8034 111.121 80.3284 111.625 79.6013 112.371C78.9528 113.047 78.4322 113.563 78.0393 113.92C77.6465 114.277 77.2702 114.604 76.9102 114.903C76.596 115.188 76.2424 115.509 75.8496 115.866C75.5025 116.21 75.0275 116.714 74.4247 117.376C73.3305 118.571 72.2527 119.737 71.1914 120.873C70.1429 122.055 69.078 123.267 67.9966 124.508C67.7537 124.872 67.488 125.242 67.1995 125.619C66.8652 126.009 66.5666 126.438 66.3037 126.906C66.695 126.895 67.0021 126.759 67.2249 126.5C67.4478 126.24 67.6149 126.045 67.7263 125.915Z" fill="#452C00"/>
<path d="M140.875 0.675977L142.324 0V7.6718H140.875V0.675977Z" fill="#452C00"/>
<path d="M138.433 6.44858V7.67178H133.616C133.566 7.40711 133.541 7.15675 133.541 6.92069C133.541 6.4772 133.612 6.0945 133.755 5.77261C133.898 5.45071 134.107 5.16459 134.383 4.91422C134.662 4.66386 135.028 4.40635 135.483 4.14168C135.797 3.9557 136.055 3.7876 136.255 3.63738C136.459 3.48716 136.633 3.2976 136.776 3.0687C136.922 2.8398 136.996 2.57513 136.996 2.2747C136.996 2.08156 136.956 1.90452 136.878 1.74357C136.799 1.57905 136.677 1.4485 136.513 1.35194C136.348 1.25179 136.144 1.20172 135.901 1.20172C135.515 1.20172 135.2 1.3269 134.957 1.57726C134.717 1.82762 134.563 2.16382 134.496 2.58586L133.358 2.04937C133.415 1.67383 133.562 1.33226 133.798 1.02468C134.034 0.713512 134.342 0.466728 134.721 0.284321C135.1 0.101915 135.526 0.0107117 135.998 0.0107117C136.445 0.0107117 136.849 0.0947617 137.21 0.262862C137.575 0.430962 137.863 0.677747 138.074 1.00322C138.285 1.32511 138.39 1.70602 138.39 2.14594C138.39 2.59659 138.308 2.9918 138.144 3.33158C137.983 3.67136 137.745 3.97894 137.43 4.25434C137.119 4.52616 136.706 4.81766 136.191 5.12882C135.905 5.3005 135.687 5.43998 135.536 5.54728C135.39 5.65458 135.263 5.78155 135.155 5.92819C135.052 6.07125 134.982 6.24472 134.946 6.44858H138.433Z" fill="#452C00"/>
<path d="M128.862 7.86492C127.928 7.86492 127.24 7.5162 126.796 6.81876C126.356 6.12133 126.136 5.16459 126.136 3.94854C126.136 2.63236 126.37 1.647 126.839 0.992488C127.308 0.33797 127.982 0.0107117 128.862 0.0107117C129.741 0.0107117 130.416 0.33797 130.884 0.992488C131.353 1.647 131.587 2.63236 131.587 3.94854C131.587 5.16459 131.365 6.12133 130.922 6.81876C130.482 7.5162 129.795 7.86492 128.862 7.86492ZM128.872 6.71683C129.681 6.71683 130.085 5.79049 130.085 3.93781C130.085 2.07083 129.681 1.13734 128.872 1.13734C128.05 1.13734 127.638 2.07083 127.638 3.93781C127.638 4.78904 127.735 5.46502 127.928 5.96574C128.121 6.46647 128.436 6.71683 128.872 6.71683Z" fill="#452C00"/>
<path d="M124.263 6.44858V7.67178H119.446C119.396 7.40711 119.371 7.15675 119.371 6.92069C119.371 6.4772 119.442 6.0945 119.585 5.77261C119.728 5.45071 119.938 5.16459 120.213 4.91422C120.492 4.66386 120.859 4.40635 121.313 4.14168C121.627 3.9557 121.885 3.7876 122.085 3.63738C122.289 3.48716 122.463 3.2976 122.606 3.0687C122.752 2.8398 122.826 2.57513 122.826 2.2747C122.826 2.08156 122.786 1.90452 122.708 1.74357C122.629 1.57905 122.507 1.4485 122.343 1.35194C122.178 1.25179 121.974 1.20172 121.731 1.20172C121.345 1.20172 121.03 1.3269 120.787 1.57726C120.547 1.82762 120.394 2.16382 120.326 2.58586L119.188 2.04937C119.245 1.67383 119.392 1.33226 119.628 1.02468C119.864 0.713512 120.172 0.466728 120.551 0.284321C120.93 0.101915 121.356 0.0107117 121.828 0.0107117C122.275 0.0107117 122.679 0.0947617 123.04 0.262862C123.405 0.430962 123.693 0.677747 123.904 1.00322C124.115 1.32511 124.221 1.70602 124.221 2.14594C124.221 2.59659 124.138 2.9918 123.974 3.33158C123.813 3.67136 123.575 3.97894 123.26 4.25434C122.949 4.52616 122.536 4.81766 122.021 5.12882C121.735 5.3005 121.517 5.43998 121.366 5.54728C121.22 5.65458 121.093 5.78155 120.985 5.92819C120.882 6.07125 120.812 6.24472 120.776 6.44858H124.263Z" fill="#452C00"/>
<path d="M113.026 6.07303H114.281V7.67177H113.026V6.07303Z" fill="#452C00"/>
<path d="M112.313 1.40561H110.585V7.67181H109.201V1.40561H107.474V0.193146H112.313V1.40561Z" fill="#452C00"/>
<path d="M103.633 7.78984C103.301 7.78984 102.986 7.7505 102.689 7.67181C102.396 7.59313 102.138 7.49119 101.917 7.36601C101.695 7.24083 101.52 7.11029 101.391 6.97438L101.938 5.84775C102.02 5.95505 102.146 6.0695 102.314 6.1911C102.482 6.31271 102.673 6.41643 102.888 6.50227C103.106 6.5881 103.322 6.63102 103.537 6.63102C103.819 6.63102 104.055 6.55413 104.245 6.40033C104.438 6.24296 104.535 6.023 104.535 5.74045C104.535 5.55804 104.49 5.40067 104.401 5.26834C104.315 5.13243 104.198 5.01261 104.052 4.90889C103.909 4.80159 103.687 4.65674 103.387 4.47434C102.975 4.22397 102.653 4.01117 102.421 3.83591C102.188 3.65708 101.986 3.4246 101.815 3.13848C101.647 2.84877 101.563 2.50005 101.563 2.09232C101.563 1.69532 101.647 1.34481 101.815 1.0408C101.986 0.733216 102.239 0.493584 102.571 0.321907C102.904 0.150231 103.304 0.0643921 103.773 0.0643921C104.535 0.0643921 105.171 0.296871 105.683 0.761828L105.082 1.85627C105.021 1.77043 104.93 1.67744 104.808 1.57729C104.687 1.47357 104.54 1.38594 104.368 1.31441C104.197 1.2393 104.016 1.20175 103.827 1.20175C103.551 1.20175 103.337 1.28222 103.183 1.44317C103.033 1.60054 102.957 1.79904 102.957 2.03867C102.957 2.22108 103.002 2.38381 103.092 2.52688C103.185 2.66637 103.304 2.79155 103.451 2.90242C103.601 3.0133 103.801 3.14384 104.052 3.29406C104.506 3.5623 104.853 3.78763 105.093 3.97003C105.332 4.15244 105.533 4.38492 105.694 4.66747C105.858 4.94645 105.94 5.2898 105.94 5.69753C105.94 6.1303 105.847 6.50405 105.661 6.81879C105.475 7.13353 105.209 7.37496 104.862 7.54306C104.515 7.70758 104.106 7.78984 103.633 7.78984Z" fill="#452C00"/>
<path d="M99.504 6.45934V7.67181H95.3838V0.193146H99.2894V1.36269H96.725V3.11165H98.7637V4.24901H96.725V6.45934H99.504Z" fill="#452C00"/>
</svg>
