<svg width="597" height="97" viewBox="0 0 597 97" fill="none" xmlns="http://www.w3.org/2000/svg">
<path d="M38.7441 39.334C36.7389 39.334 35.3034 39.6074 34.4375 40.1543C33.5944 40.6784 33.1729 41.6924 33.1729 43.1963V64.3193H40.0088C40.943 64.3193 41.7292 64.2282 42.3672 64.0459C43.0052 63.8636 43.5065 63.4876 43.8711 62.918C44.2357 62.3255 44.4863 61.5052 44.623 60.457C44.7826 59.4089 44.8623 58.0189 44.8623 56.2871H56.8252V77H7.40137V64.3193C9.40658 64.3193 10.8421 64.0573 11.708 63.5332C12.5739 62.9863 13.0068 61.9723 13.0068 60.4912V43.1963C13.0068 41.6924 12.5739 40.6784 11.708 40.1543C10.8421 39.6074 9.40658 39.334 7.40137 39.334V26.6533H38.7441V39.334ZM77.8799 44.085C76.7178 44.085 75.7152 44.1761 74.8721 44.3584C74.0518 44.5179 73.3454 44.7116 72.7529 44.9395C72.1605 45.1673 71.6706 45.4294 71.2832 45.7256C70.8958 45.999 70.554 46.2497 70.2578 46.4775L70.5996 46.8193C71.0326 46.5915 71.4997 46.3636 72.001 46.1357C72.5251 45.9079 73.1859 45.7939 73.9834 45.7939C75.3278 45.7939 76.4899 46.2383 77.4697 47.127C78.4495 47.9928 78.9395 49.3828 78.9395 51.2969C78.9395 53.1198 78.1875 54.5895 76.6836 55.7061C75.2025 56.7998 73.2087 57.3467 70.7021 57.3467C68.3096 57.3467 66.3955 56.6631 64.96 55.2959C63.5472 53.9059 62.8408 51.9463 62.8408 49.417C62.8408 48.027 63.2282 46.6484 64.0029 45.2812C64.7777 43.8913 65.974 42.6494 67.5918 41.5557C69.2324 40.4619 71.306 39.5618 73.8125 38.8555C76.3418 38.1491 79.3838 37.7959 82.9385 37.7959C87.1768 37.7959 90.6403 38.1947 93.3291 38.9922C96.0179 39.7897 98.1029 40.8151 99.584 42.0684C101.088 43.3216 102.113 44.7458 102.66 46.3408C103.23 47.9359 103.515 49.5423 103.515 51.1602V64.5244C103.515 66.598 103.583 68.0107 103.72 68.7627C103.856 69.4919 104.369 69.8564 105.258 69.8564C105.964 69.8564 106.454 69.526 106.728 68.8652C107.024 68.1816 107.172 67.0195 107.172 65.3789V61.1064H111.068V65.4473C111.068 67.498 110.897 69.321 110.556 70.916C110.214 72.4883 109.564 73.8441 108.607 74.9834C107.65 76.0999 106.352 76.943 104.711 77.5127C103.07 78.1051 100.974 78.4014 98.4219 78.4014C96.1204 78.4014 94.2064 78.1507 92.6797 77.6494C91.1758 77.1709 89.9795 76.5671 89.0908 75.8379C88.2021 75.1087 87.5641 74.3568 87.1768 73.582C86.8122 72.7845 86.6299 72.0781 86.6299 71.4629H86.083C85.9463 72.3971 85.5475 73.2858 84.8867 74.1289C84.2487 74.972 83.3486 75.724 82.1865 76.3848C81.0472 77.0228 79.6686 77.5355 78.0508 77.9229C76.4557 78.333 74.6328 78.5381 72.582 78.5381C70.6224 78.5381 68.8337 78.3444 67.2158 77.957C65.6208 77.5924 64.2536 77.0114 63.1143 76.2139C61.9977 75.3936 61.1204 74.3454 60.4824 73.0693C59.8672 71.7705 59.5596 70.2324 59.5596 68.4551C59.5596 66.2676 60.1748 64.5472 61.4053 63.2939C62.6357 62.0179 64.1852 61.0153 66.0537 60.2861C67.9222 59.5342 69.9502 58.9303 72.1377 58.4746C74.348 57.9961 76.3874 57.4264 78.2559 56.7656C80.1243 56.1048 81.6738 55.2503 82.9043 54.2021C84.1348 53.154 84.75 51.6729 84.75 49.7588C84.75 48.0498 84.2145 46.6826 83.1436 45.6572C82.0726 44.609 80.318 44.085 77.8799 44.085ZM84.75 58.8848C84.2487 59.6139 83.6221 60.2064 82.8701 60.6621C82.1182 61.0951 81.389 61.528 80.6826 61.9609C79.999 62.3711 79.3952 62.8724 78.8711 63.4648C78.3698 64.0345 78.1191 64.8092 78.1191 65.7891C78.1191 66.541 78.3242 67.2246 78.7344 67.8398C79.1445 68.4323 79.9421 68.7285 81.127 68.7285C82.1979 68.7285 83.0638 68.3184 83.7246 67.498C84.4082 66.6549 84.75 65.4814 84.75 63.9775V58.8848ZM152.118 51.8096H142.719C142.058 50.1689 141.033 48.8701 139.643 47.9131C138.253 46.9561 136.806 46.4775 135.302 46.4775C134.276 46.4775 133.456 46.6712 132.841 47.0586C132.248 47.4232 131.952 47.9814 131.952 48.7334C131.952 49.6676 132.476 50.374 133.524 50.8525C134.573 51.3083 135.883 51.7184 137.455 52.083C139.05 52.4476 140.771 52.8919 142.616 53.416C144.462 53.9173 146.171 54.6465 147.743 55.6035C149.338 56.5605 150.66 57.848 151.708 59.4658C152.756 61.0837 153.28 63.2142 153.28 65.8574C153.28 67.9082 152.825 69.6969 151.913 71.2236C151.002 72.7503 149.748 74.0036 148.153 74.9834C146.581 75.9632 144.724 76.6924 142.582 77.1709C140.44 77.6722 138.127 77.9229 135.644 77.9229C133.228 77.9229 130.938 77.6836 128.773 77.2051C126.632 76.7493 124.581 75.9632 122.621 74.8467L122.279 77.2051H113.256V63.499H122.621C123.51 65.3219 124.626 66.7347 125.971 67.7373C127.338 68.7399 128.842 69.2412 130.482 69.2412C131.736 69.2412 132.624 69.0133 133.148 68.5576C133.695 68.0791 133.969 67.555 133.969 66.9854C133.969 66.0511 133.445 65.3333 132.396 64.832C131.348 64.3079 130.049 63.8522 128.5 63.4648C126.973 63.0547 125.287 62.6104 123.441 62.1318C121.596 61.6305 119.898 60.9128 118.349 59.9785C116.822 59.0443 115.535 57.791 114.486 56.2188C113.438 54.6237 112.914 52.5387 112.914 49.9639C112.914 48.1182 113.324 46.432 114.145 44.9053C114.988 43.3786 116.184 42.0911 117.733 41.043C119.283 39.9948 121.106 39.1973 123.202 38.6504C125.299 38.0807 127.6 37.7959 130.106 37.7959C132.909 37.7959 135.427 38.1149 137.66 38.7529C139.916 39.3682 141.602 40.0518 142.719 40.8037L143.061 38.377H152.118V51.8096ZM174.813 44.085C173.651 44.085 172.649 44.1761 171.806 44.3584C170.985 44.5179 170.279 44.7116 169.687 44.9395C169.094 45.1673 168.604 45.4294 168.217 45.7256C167.829 45.999 167.488 46.2497 167.191 46.4775L167.533 46.8193C167.966 46.5915 168.433 46.3636 168.935 46.1357C169.459 45.9079 170.119 45.7939 170.917 45.7939C172.261 45.7939 173.424 46.2383 174.403 47.127C175.383 47.9928 175.873 49.3828 175.873 51.2969C175.873 53.1198 175.121 54.5895 173.617 55.7061C172.136 56.7998 170.142 57.3467 167.636 57.3467C165.243 57.3467 163.329 56.6631 161.894 55.2959C160.481 53.9059 159.774 51.9463 159.774 49.417C159.774 48.027 160.162 46.6484 160.937 45.2812C161.711 43.8913 162.908 42.6494 164.525 41.5557C166.166 40.4619 168.24 39.5618 170.746 38.8555C173.275 38.1491 176.317 37.7959 179.872 37.7959C184.11 37.7959 187.574 38.1947 190.263 38.9922C192.951 39.7897 195.036 40.8151 196.518 42.0684C198.021 43.3216 199.047 44.7458 199.594 46.3408C200.163 47.9359 200.448 49.5423 200.448 51.1602V64.5244C200.448 66.598 200.517 68.0107 200.653 68.7627C200.79 69.4919 201.303 69.8564 202.191 69.8564C202.898 69.8564 203.388 69.526 203.661 68.8652C203.957 68.1816 204.105 67.0195 204.105 65.3789V61.1064H208.002V65.4473C208.002 67.498 207.831 69.321 207.489 70.916C207.147 72.4883 206.498 73.8441 205.541 74.9834C204.584 76.0999 203.285 76.943 201.645 77.5127C200.004 78.1051 197.908 78.4014 195.355 78.4014C193.054 78.4014 191.14 78.1507 189.613 77.6494C188.109 77.1709 186.913 76.5671 186.024 75.8379C185.136 75.1087 184.498 74.3568 184.11 73.582C183.746 72.7845 183.563 72.0781 183.563 71.4629H183.017C182.88 72.3971 182.481 73.2858 181.82 74.1289C181.182 74.972 180.282 75.724 179.12 76.3848C177.981 77.0228 176.602 77.5355 174.984 77.9229C173.389 78.333 171.566 78.5381 169.516 78.5381C167.556 78.5381 165.767 78.3444 164.149 77.957C162.554 77.5924 161.187 77.0114 160.048 76.2139C158.931 75.3936 158.054 74.3454 157.416 73.0693C156.801 71.7705 156.493 70.2324 156.493 68.4551C156.493 66.2676 157.108 64.5472 158.339 63.2939C159.569 62.0179 161.119 61.0153 162.987 60.2861C164.856 59.5342 166.884 58.9303 169.071 58.4746C171.282 57.9961 173.321 57.4264 175.189 56.7656C177.058 56.1048 178.607 55.2503 179.838 54.2021C181.068 53.154 181.684 51.6729 181.684 49.7588C181.684 48.0498 181.148 46.6826 180.077 45.6572C179.006 44.609 177.252 44.085 174.813 44.085ZM181.684 58.8848C181.182 59.6139 180.556 60.2064 179.804 60.6621C179.052 61.0951 178.323 61.528 177.616 61.9609C176.933 62.3711 176.329 62.8724 175.805 63.4648C175.303 64.0345 175.053 64.8092 175.053 65.7891C175.053 66.541 175.258 67.2246 175.668 67.8398C176.078 68.4323 176.876 68.7285 178.061 68.7285C179.132 68.7285 179.997 68.3184 180.658 67.498C181.342 66.6549 181.684 65.4814 181.684 63.9775V58.8848ZM259.032 83.2207C259.032 87.0944 256.799 90.0566 252.333 92.1074C247.89 94.1582 241.452 95.1836 233.021 95.1836C229.968 95.1836 226.994 95.138 224.101 95.0469C221.207 94.9557 218.643 94.6481 216.41 94.124C214.177 93.6227 212.377 92.8138 211.01 91.6973C209.665 90.5807 208.993 88.9971 208.993 86.9463C208.993 85.3057 209.517 83.9613 210.565 82.9131C211.614 81.8649 212.742 81.0332 213.949 80.418C212.468 79.5293 211.454 78.5381 210.907 77.4443C210.383 76.3506 210.121 75.1543 210.121 73.8555C210.121 72.306 210.679 70.8249 211.796 69.4121C212.912 67.9766 214.519 66.5866 216.615 65.2422C214.564 63.8978 212.992 62.2572 211.898 60.3203C210.805 58.3835 210.258 56.082 210.258 53.416C210.258 50.8411 210.793 48.5853 211.864 46.6484C212.935 44.7116 214.473 43.0938 216.479 41.7949C218.484 40.4961 220.876 39.5049 223.656 38.8213C226.436 38.1377 229.558 37.7959 233.021 37.7959C236.736 37.7959 240.085 38.1947 243.07 38.9922C246.078 39.7897 248.63 40.9974 250.727 42.6152C251.137 42.0684 251.695 41.5329 252.401 41.0088C252.994 40.5986 253.746 40.2227 254.657 39.8809C255.569 39.5163 256.685 39.334 258.007 39.334H261.151V52.0146H258.896C257.916 52.0146 257.164 52.2881 256.64 52.835C256.138 53.359 255.842 53.8717 255.751 54.373C254.953 59.181 252.629 62.8496 248.778 65.3789C244.927 67.9082 239.675 69.1729 233.021 69.1729C229.285 69.1729 225.901 68.7741 222.87 67.9766C222.392 68.2956 222.152 68.6943 222.152 69.1729C222.152 70.0615 222.676 70.6882 223.725 71.0527C224.773 71.4173 226.163 71.668 227.895 71.8047C229.626 71.9186 231.597 71.9642 233.808 71.9414C236.018 71.8958 238.274 71.93 240.575 72.0439C242.899 72.1351 245.167 72.3402 247.377 72.6592C249.61 72.9782 251.581 73.5479 253.29 74.3682C255.022 75.1885 256.412 76.305 257.46 77.7178C258.508 79.1533 259.032 80.9876 259.032 83.2207ZM228.236 53.416C228.236 55.7858 228.567 57.6201 229.228 58.9189C229.888 60.195 231.153 60.833 233.021 60.833C234.913 60.833 236.189 60.195 236.85 58.9189C237.51 57.6201 237.841 55.7858 237.841 53.416C237.841 51.069 237.51 49.2803 236.85 48.0498C236.189 46.8193 234.913 46.2041 233.021 46.2041C231.153 46.2041 229.888 46.8193 229.228 48.0498C228.567 49.2803 228.236 51.069 228.236 53.416ZM234.56 83.7334C232.121 83.7334 229.911 83.665 227.929 83.5283C225.946 83.4144 224.158 83.2435 222.562 83.0156C222.335 83.403 222.221 83.8018 222.221 84.2119C222.221 85.8525 223.109 86.9235 224.887 87.4248C226.664 87.9489 229 88.2109 231.894 88.2109C235.767 88.2109 238.593 87.9717 240.37 87.4932C242.17 87.0374 243.07 86.388 243.07 85.5449C243.07 85.112 242.808 84.7816 242.284 84.5537C241.783 84.3258 241.111 84.1436 240.268 84.0068C239.447 83.8701 238.536 83.7904 237.533 83.7676C236.531 83.7448 235.539 83.7334 234.56 83.7334ZM296.186 55.1592C296.186 54.2705 296.072 53.5641 295.844 53.04C295.639 52.4932 295.365 52.083 295.023 51.8096C294.704 51.5133 294.34 51.3197 293.93 51.2285C293.52 51.1374 293.121 51.0918 292.733 51.0918C291.252 51.0918 290.147 51.5247 289.418 52.3906C288.689 53.2565 288.324 54.487 288.324 56.082V60.9697C288.324 62.1774 288.529 63.0433 288.939 63.5674C289.372 64.0687 290.193 64.3193 291.4 64.3193H293.246V77H264.672V64.3193H266.688C267.623 64.3193 268.329 64.0231 268.808 63.4307C269.309 62.8154 269.56 62.0863 269.56 61.2432V54.749C269.56 53.6781 269.241 52.9603 268.603 52.5957C267.987 52.2083 267.281 52.0146 266.483 52.0146H264.672V39.334H284.975L284.257 48.7334H284.838C285.339 45.2243 286.877 42.5241 289.452 40.6328C292.027 38.7415 295.525 37.7959 299.945 37.7959C303.067 37.7959 305.608 38.2402 307.567 39.1289C309.527 40.0176 311.042 41.1455 312.113 42.5127C313.207 43.8571 313.948 45.3268 314.335 46.9219C314.722 48.4941 314.916 49.9753 314.916 51.3652V60.9697C314.916 62.1774 315.121 63.0433 315.531 63.5674C315.964 64.0687 316.785 64.3193 317.992 64.3193H319.838V77H296.186V55.1592ZM341.439 60.2861C341.531 63.6813 342.169 66.0283 343.354 67.3271C344.561 68.6032 346.282 69.2412 348.515 69.2412C349.267 69.2412 349.996 69.1387 350.702 68.9336C351.431 68.7057 352.104 68.3525 352.719 67.874C353.334 67.3727 353.858 66.7233 354.291 65.9258C354.747 65.1055 355.043 64.0801 355.18 62.8496H367.621C367.165 65.7891 366.322 68.25 365.092 70.2324C363.884 72.2148 362.323 73.8213 360.409 75.0518C358.495 76.2594 356.262 77.1253 353.71 77.6494C351.181 78.1963 348.355 78.4697 345.233 78.4697C342.021 78.4697 339.001 78.0596 336.176 77.2393C333.35 76.4189 330.867 75.1771 328.725 73.5137C326.605 71.8275 324.942 69.7197 323.734 67.1904C322.527 64.6383 321.923 61.6077 321.923 58.0986C321.923 54.749 322.493 51.8096 323.632 49.2803C324.771 46.751 326.366 44.6432 328.417 42.957C330.491 41.248 332.929 39.9606 335.731 39.0947C338.557 38.2288 341.656 37.7959 345.028 37.7959C349.175 37.7959 352.742 38.3428 355.727 39.4365C358.712 40.5303 361.15 42.057 363.041 44.0166C364.932 45.9762 366.322 48.3346 367.211 51.0918C368.1 53.849 368.521 56.9137 368.476 60.2861H341.439ZM346.498 47.0244C344.903 47.0244 343.718 47.5941 342.943 48.7334C342.191 49.8499 341.69 51.707 341.439 54.3047H351.454C351.317 52.0716 350.839 50.3057 350.019 49.0068C349.198 47.6852 348.025 47.0244 346.498 47.0244ZM446.986 39.1973C446.986 46.4889 443.192 50.4766 435.604 51.1602V51.5361C439.569 51.6273 442.691 52.7096 444.97 54.7832C447.248 56.8568 448.388 59.8532 448.388 63.7725C448.388 65.4131 448.194 67.0309 447.807 68.626C447.419 70.1982 446.576 71.5996 445.277 72.8301C444.001 74.0605 442.144 75.0632 439.706 75.8379C437.291 76.6126 434.032 77 429.931 77H392.333V64.3193C394.338 64.3193 395.774 64.0573 396.64 63.5332C397.506 62.9863 397.938 61.9723 397.938 60.4912V43.1963C397.938 41.6924 397.506 40.6784 396.64 40.1543C395.774 39.6074 394.338 39.334 392.333 39.334V26.6533H432.289C435.434 26.6533 437.974 27.0065 439.911 27.7129C441.848 28.4193 443.34 29.3535 444.389 30.5156C445.437 31.6777 446.132 33.0221 446.474 34.5488C446.815 36.0527 446.986 37.6022 446.986 39.1973ZM423.197 64.3193C425.111 64.3193 426.433 63.9548 427.162 63.2256C427.891 62.4736 428.256 61.2318 428.256 59.5C428.256 57.7682 427.891 56.515 427.162 55.7402C426.433 54.9427 425.111 54.5439 423.197 54.5439H418.104V64.3193H423.197ZM418.104 48.4941H423.266C424.678 48.4941 425.692 48.0498 426.308 47.1611C426.946 46.2497 427.265 45.1559 427.265 43.8799C427.265 42.6722 426.946 41.6126 426.308 40.7012C425.692 39.7897 424.678 39.334 423.266 39.334H418.104V48.4941ZM451.19 58.0986C451.19 54.749 451.771 51.8096 452.934 49.2803C454.096 46.751 455.748 44.6432 457.89 42.957C460.054 41.248 462.652 39.9606 465.683 39.0947C468.713 38.2288 472.097 37.7959 475.834 37.7959C479.571 37.7959 482.955 38.2288 485.985 39.0947C489.016 39.9606 491.602 41.248 493.744 42.957C495.886 44.6432 497.538 46.751 498.7 49.2803C499.885 51.8096 500.478 54.749 500.478 58.0986C500.478 61.4027 499.885 64.3307 498.7 66.8828C497.538 69.4349 495.886 71.5768 493.744 73.3086C491.602 75.0176 489.016 76.305 485.985 77.1709C482.955 78.0368 479.571 78.4697 475.834 78.4697C472.097 78.4697 468.713 78.0368 465.683 77.1709C462.652 76.305 460.054 75.0176 457.89 73.3086C455.748 71.5768 454.096 69.4349 452.934 66.8828C451.771 64.3307 451.19 61.4027 451.19 58.0986ZM470.639 58.0986C470.639 60.0127 470.718 61.6419 470.878 62.9863C471.06 64.3079 471.345 65.3789 471.732 66.1992C472.12 66.9967 472.644 67.5892 473.305 67.9766C473.965 68.3411 474.809 68.5234 475.834 68.5234C476.859 68.5234 477.691 68.3411 478.329 67.9766C478.99 67.5892 479.514 66.9967 479.901 66.1992C480.312 65.3789 480.596 64.3079 480.756 62.9863C480.915 61.6419 480.995 60.0127 480.995 58.0986C480.995 54.2705 480.631 51.5931 479.901 50.0664C479.195 48.5169 477.839 47.7422 475.834 47.7422C474.809 47.7422 473.965 47.9245 473.305 48.2891C472.644 48.6309 472.12 49.2119 471.732 50.0322C471.345 50.8298 471.06 51.9007 470.878 53.2451C470.718 54.5667 470.639 56.1846 470.639 58.0986ZM534.418 79.8027C533.643 81.4889 532.846 83.2891 532.025 85.2031C531.205 87.1172 530.123 88.8831 528.778 90.501C527.457 92.1416 525.748 93.4974 523.651 94.5684C521.555 95.6393 518.821 96.1748 515.448 96.1748C513.078 96.1748 511.005 95.8672 509.228 95.252C507.45 94.6595 505.98 93.8506 504.818 92.8252C503.656 91.7998 502.79 90.6149 502.221 89.2705C501.674 87.9489 501.4 86.5931 501.4 85.2031C501.4 82.446 502.243 80.2699 503.93 78.6748C505.639 77.1025 507.758 76.3164 510.287 76.3164C511.768 76.3164 513.01 76.5329 514.013 76.9658C515.015 77.3988 515.836 77.957 516.474 78.6406C517.112 79.3242 517.556 80.0762 517.807 80.8965C518.057 81.7168 518.183 82.4915 518.183 83.2207C518.183 84.8613 517.772 86.1146 516.952 86.9805C516.155 87.8464 515.186 88.3932 514.047 88.6211C514.138 88.7122 514.286 88.7806 514.491 88.8262C514.765 88.9629 515.323 89.0312 516.166 89.0312C516.964 89.0312 517.67 88.8262 518.285 88.416C518.923 88.0286 519.493 87.5387 519.994 86.9463C520.518 86.3766 520.963 85.75 521.327 85.0664C521.715 84.4056 522.022 83.7904 522.25 83.2207L522.318 83.0156L507.758 54.9541C507.53 54.43 507.279 53.9857 507.006 53.6211C506.755 53.2565 506.436 52.9603 506.049 52.7324C505.684 52.4818 505.217 52.2995 504.647 52.1855C504.101 52.0716 503.406 52.0146 502.562 52.0146V39.334H530.009V52.0146C528.573 52.0146 527.628 52.2311 527.172 52.6641C526.739 53.0742 526.705 53.7236 527.069 54.6123L531.205 63.4307L535.204 54.6123C535.569 53.8148 535.523 53.1882 535.067 52.7324C534.634 52.2539 533.7 52.0146 532.265 52.0146V39.334H551.303V52.0146C549.617 52.0146 548.432 52.2539 547.748 52.7324C547.087 53.1882 546.518 53.9287 546.039 54.9541L534.418 79.8027ZM593.583 51.8096H584.184C583.523 50.1689 582.497 48.8701 581.107 47.9131C579.717 46.9561 578.271 46.4775 576.767 46.4775C575.741 46.4775 574.921 46.6712 574.306 47.0586C573.713 47.4232 573.417 47.9814 573.417 48.7334C573.417 49.6676 573.941 50.374 574.989 50.8525C576.037 51.3083 577.348 51.7184 578.92 52.083C580.515 52.4476 582.235 52.8919 584.081 53.416C585.927 53.9173 587.636 54.6465 589.208 55.6035C590.803 56.5605 592.125 57.848 593.173 59.4658C594.221 61.0837 594.745 63.2142 594.745 65.8574C594.745 67.9082 594.289 69.6969 593.378 71.2236C592.466 72.7503 591.213 74.0036 589.618 74.9834C588.046 75.9632 586.189 76.6924 584.047 77.1709C581.905 77.6722 579.592 77.9229 577.108 77.9229C574.693 77.9229 572.403 77.6836 570.238 77.2051C568.096 76.7493 566.046 75.9632 564.086 74.8467L563.744 77.2051H554.721V63.499H564.086C564.975 65.3219 566.091 66.7347 567.436 67.7373C568.803 68.7399 570.307 69.2412 571.947 69.2412C573.201 69.2412 574.089 69.0133 574.613 68.5576C575.16 68.0791 575.434 67.555 575.434 66.9854C575.434 66.0511 574.91 65.3333 573.861 64.832C572.813 64.3079 571.514 63.8522 569.965 63.4648C568.438 63.0547 566.752 62.6104 564.906 62.1318C563.061 61.6305 561.363 60.9128 559.813 59.9785C558.287 59.0443 556.999 57.791 555.951 56.2188C554.903 54.6237 554.379 52.5387 554.379 49.9639C554.379 48.1182 554.789 46.432 555.609 44.9053C556.452 43.3786 557.649 42.0911 559.198 41.043C560.748 39.9948 562.571 39.1973 564.667 38.6504C566.763 38.0807 569.065 37.7959 571.571 37.7959C574.374 37.7959 576.892 38.1149 579.125 38.7529C581.381 39.3682 583.067 40.0518 584.184 40.8037L584.525 38.377H593.583V51.8096Z" fill="#777520"/>
<path d="M35.7441 36.334C33.7389 36.334 32.3034 36.6074 31.4375 37.1543C30.5944 37.6784 30.1729 38.6924 30.1729 40.1963V61.3193H37.0088C37.943 61.3193 38.7292 61.2282 39.3672 61.0459C40.0052 60.8636 40.5065 60.4876 40.8711 59.918C41.2357 59.3255 41.4863 58.5052 41.623 57.457C41.7826 56.4089 41.8623 55.0189 41.8623 53.2871H53.8252V74H4.40137V61.3193C6.40658 61.3193 7.84212 61.0573 8.70801 60.5332C9.57389 59.9863 10.0068 58.9723 10.0068 57.4912V40.1963C10.0068 38.6924 9.57389 37.6784 8.70801 37.1543C7.84212 36.6074 6.40658 36.334 4.40137 36.334V23.6533H35.7441V36.334ZM74.8799 41.085C73.7178 41.085 72.7152 41.1761 71.8721 41.3584C71.0518 41.5179 70.3454 41.7116 69.7529 41.9395C69.1605 42.1673 68.6706 42.4294 68.2832 42.7256C67.8958 42.999 67.554 43.2497 67.2578 43.4775L67.5996 43.8193C68.0326 43.5915 68.4997 43.3636 69.001 43.1357C69.5251 42.9079 70.1859 42.7939 70.9834 42.7939C72.3278 42.7939 73.4899 43.2383 74.4697 44.127C75.4495 44.9928 75.9395 46.3828 75.9395 48.2969C75.9395 50.1198 75.1875 51.5895 73.6836 52.7061C72.2025 53.7998 70.2087 54.3467 67.7021 54.3467C65.3096 54.3467 63.3955 53.6631 61.96 52.2959C60.5472 50.9059 59.8408 48.9463 59.8408 46.417C59.8408 45.027 60.2282 43.6484 61.0029 42.2812C61.7777 40.8913 62.974 39.6494 64.5918 38.5557C66.2324 37.4619 68.306 36.5618 70.8125 35.8555C73.3418 35.1491 76.3838 34.7959 79.9385 34.7959C84.1768 34.7959 87.6403 35.1947 90.3291 35.9922C93.0179 36.7897 95.1029 37.8151 96.584 39.0684C98.0879 40.3216 99.1133 41.7458 99.6602 43.3408C100.23 44.9359 100.515 46.5423 100.515 48.1602V61.5244C100.515 63.598 100.583 65.0107 100.72 65.7627C100.856 66.4919 101.369 66.8564 102.258 66.8564C102.964 66.8564 103.454 66.526 103.728 65.8652C104.024 65.1816 104.172 64.0195 104.172 62.3789V58.1064H108.068V62.4473C108.068 64.498 107.897 66.321 107.556 67.916C107.214 69.4883 106.564 70.8441 105.607 71.9834C104.65 73.0999 103.352 73.943 101.711 74.5127C100.07 75.1051 97.974 75.4014 95.4219 75.4014C93.1204 75.4014 91.2064 75.1507 89.6797 74.6494C88.1758 74.1709 86.9795 73.5671 86.0908 72.8379C85.2021 72.1087 84.5641 71.3568 84.1768 70.582C83.8122 69.7845 83.6299 69.0781 83.6299 68.4629H83.083C82.9463 69.3971 82.5475 70.2858 81.8867 71.1289C81.2487 71.972 80.3486 72.724 79.1865 73.3848C78.0472 74.0228 76.6686 74.5355 75.0508 74.9229C73.4557 75.333 71.6328 75.5381 69.582 75.5381C67.6224 75.5381 65.8337 75.3444 64.2158 74.957C62.6208 74.5924 61.2536 74.0114 60.1143 73.2139C58.9977 72.3936 58.1204 71.3454 57.4824 70.0693C56.8672 68.7705 56.5596 67.2324 56.5596 65.4551C56.5596 63.2676 57.1748 61.5472 58.4053 60.2939C59.6357 59.0179 61.1852 58.0153 63.0537 57.2861C64.9222 56.5342 66.9502 55.9303 69.1377 55.4746C71.348 54.9961 73.3874 54.4264 75.2559 53.7656C77.1243 53.1048 78.6738 52.2503 79.9043 51.2021C81.1348 50.154 81.75 48.6729 81.75 46.7588C81.75 45.0498 81.2145 43.6826 80.1436 42.6572C79.0726 41.609 77.318 41.085 74.8799 41.085ZM81.75 55.8848C81.2487 56.6139 80.6221 57.2064 79.8701 57.6621C79.1182 58.0951 78.389 58.528 77.6826 58.9609C76.999 59.3711 76.3952 59.8724 75.8711 60.4648C75.3698 61.0345 75.1191 61.8092 75.1191 62.7891C75.1191 63.541 75.3242 64.2246 75.7344 64.8398C76.1445 65.4323 76.9421 65.7285 78.127 65.7285C79.1979 65.7285 80.0638 65.3184 80.7246 64.498C81.4082 63.6549 81.75 62.4814 81.75 60.9775V55.8848ZM149.118 48.8096H139.719C139.058 47.1689 138.033 45.8701 136.643 44.9131C135.253 43.9561 133.806 43.4775 132.302 43.4775C131.276 43.4775 130.456 43.6712 129.841 44.0586C129.248 44.4232 128.952 44.9814 128.952 45.7334C128.952 46.6676 129.476 47.374 130.524 47.8525C131.573 48.3083 132.883 48.7184 134.455 49.083C136.05 49.4476 137.771 49.8919 139.616 50.416C141.462 50.9173 143.171 51.6465 144.743 52.6035C146.338 53.5605 147.66 54.848 148.708 56.4658C149.756 58.0837 150.28 60.2142 150.28 62.8574C150.28 64.9082 149.825 66.6969 148.913 68.2236C148.002 69.7503 146.748 71.0036 145.153 71.9834C143.581 72.9632 141.724 73.6924 139.582 74.1709C137.44 74.6722 135.127 74.9229 132.644 74.9229C130.228 74.9229 127.938 74.6836 125.773 74.2051C123.632 73.7493 121.581 72.9632 119.621 71.8467L119.279 74.2051H110.256V60.499H119.621C120.51 62.3219 121.626 63.7347 122.971 64.7373C124.338 65.7399 125.842 66.2412 127.482 66.2412C128.736 66.2412 129.624 66.0133 130.148 65.5576C130.695 65.0791 130.969 64.555 130.969 63.9854C130.969 63.0511 130.445 62.3333 129.396 61.832C128.348 61.3079 127.049 60.8522 125.5 60.4648C123.973 60.0547 122.287 59.6104 120.441 59.1318C118.596 58.6305 116.898 57.9128 115.349 56.9785C113.822 56.0443 112.535 54.791 111.486 53.2188C110.438 51.6237 109.914 49.5387 109.914 46.9639C109.914 45.1182 110.324 43.432 111.145 41.9053C111.988 40.3786 113.184 39.0911 114.733 38.043C116.283 36.9948 118.106 36.1973 120.202 35.6504C122.299 35.0807 124.6 34.7959 127.106 34.7959C129.909 34.7959 132.427 35.1149 134.66 35.7529C136.916 36.3682 138.602 37.0518 139.719 37.8037L140.061 35.377H149.118V48.8096ZM171.813 41.085C170.651 41.085 169.649 41.1761 168.806 41.3584C167.985 41.5179 167.279 41.7116 166.687 41.9395C166.094 42.1673 165.604 42.4294 165.217 42.7256C164.829 42.999 164.488 43.2497 164.191 43.4775L164.533 43.8193C164.966 43.5915 165.433 43.3636 165.935 43.1357C166.459 42.9079 167.119 42.7939 167.917 42.7939C169.261 42.7939 170.424 43.2383 171.403 44.127C172.383 44.9928 172.873 46.3828 172.873 48.2969C172.873 50.1198 172.121 51.5895 170.617 52.7061C169.136 53.7998 167.142 54.3467 164.636 54.3467C162.243 54.3467 160.329 53.6631 158.894 52.2959C157.481 50.9059 156.774 48.9463 156.774 46.417C156.774 45.027 157.162 43.6484 157.937 42.2812C158.711 40.8913 159.908 39.6494 161.525 38.5557C163.166 37.4619 165.24 36.5618 167.746 35.8555C170.275 35.1491 173.317 34.7959 176.872 34.7959C181.11 34.7959 184.574 35.1947 187.263 35.9922C189.951 36.7897 192.036 37.8151 193.518 39.0684C195.021 40.3216 196.047 41.7458 196.594 43.3408C197.163 44.9359 197.448 46.5423 197.448 48.1602V61.5244C197.448 63.598 197.517 65.0107 197.653 65.7627C197.79 66.4919 198.303 66.8564 199.191 66.8564C199.898 66.8564 200.388 66.526 200.661 65.8652C200.957 65.1816 201.105 64.0195 201.105 62.3789V58.1064H205.002V62.4473C205.002 64.498 204.831 66.321 204.489 67.916C204.147 69.4883 203.498 70.8441 202.541 71.9834C201.584 73.0999 200.285 73.943 198.645 74.5127C197.004 75.1051 194.908 75.4014 192.355 75.4014C190.054 75.4014 188.14 75.1507 186.613 74.6494C185.109 74.1709 183.913 73.5671 183.024 72.8379C182.136 72.1087 181.498 71.3568 181.11 70.582C180.746 69.7845 180.563 69.0781 180.563 68.4629H180.017C179.88 69.3971 179.481 70.2858 178.82 71.1289C178.182 71.972 177.282 72.724 176.12 73.3848C174.981 74.0228 173.602 74.5355 171.984 74.9229C170.389 75.333 168.566 75.5381 166.516 75.5381C164.556 75.5381 162.767 75.3444 161.149 74.957C159.554 74.5924 158.187 74.0114 157.048 73.2139C155.931 72.3936 155.054 71.3454 154.416 70.0693C153.801 68.7705 153.493 67.2324 153.493 65.4551C153.493 63.2676 154.108 61.5472 155.339 60.2939C156.569 59.0179 158.119 58.0153 159.987 57.2861C161.856 56.5342 163.884 55.9303 166.071 55.4746C168.282 54.9961 170.321 54.4264 172.189 53.7656C174.058 53.1048 175.607 52.2503 176.838 51.2021C178.068 50.154 178.684 48.6729 178.684 46.7588C178.684 45.0498 178.148 43.6826 177.077 42.6572C176.006 41.609 174.252 41.085 171.813 41.085ZM178.684 55.8848C178.182 56.6139 177.556 57.2064 176.804 57.6621C176.052 58.0951 175.323 58.528 174.616 58.9609C173.933 59.3711 173.329 59.8724 172.805 60.4648C172.303 61.0345 172.053 61.8092 172.053 62.7891C172.053 63.541 172.258 64.2246 172.668 64.8398C173.078 65.4323 173.876 65.7285 175.061 65.7285C176.132 65.7285 176.997 65.3184 177.658 64.498C178.342 63.6549 178.684 62.4814 178.684 60.9775V55.8848ZM256.032 80.2207C256.032 84.0944 253.799 87.0566 249.333 89.1074C244.89 91.1582 238.452 92.1836 230.021 92.1836C226.968 92.1836 223.994 92.138 221.101 92.0469C218.207 91.9557 215.643 91.6481 213.41 91.124C211.177 90.6227 209.377 89.8138 208.01 88.6973C206.665 87.5807 205.993 85.9971 205.993 83.9463C205.993 82.3057 206.517 80.9613 207.565 79.9131C208.614 78.8649 209.742 78.0332 210.949 77.418C209.468 76.5293 208.454 75.5381 207.907 74.4443C207.383 73.3506 207.121 72.1543 207.121 70.8555C207.121 69.306 207.679 67.8249 208.796 66.4121C209.912 64.9766 211.519 63.5866 213.615 62.2422C211.564 60.8978 209.992 59.2572 208.898 57.3203C207.805 55.3835 207.258 53.082 207.258 50.416C207.258 47.8411 207.793 45.5853 208.864 43.6484C209.935 41.7116 211.473 40.0938 213.479 38.7949C215.484 37.4961 217.876 36.5049 220.656 35.8213C223.436 35.1377 226.558 34.7959 230.021 34.7959C233.736 34.7959 237.085 35.1947 240.07 35.9922C243.078 36.7897 245.63 37.9974 247.727 39.6152C248.137 39.0684 248.695 38.5329 249.401 38.0088C249.994 37.5986 250.746 37.2227 251.657 36.8809C252.569 36.5163 253.685 36.334 255.007 36.334H258.151V49.0146H255.896C254.916 49.0146 254.164 49.2881 253.64 49.835C253.138 50.359 252.842 50.8717 252.751 51.373C251.953 56.181 249.629 59.8496 245.778 62.3789C241.927 64.9082 236.675 66.1729 230.021 66.1729C226.285 66.1729 222.901 65.7741 219.87 64.9766C219.392 65.2956 219.152 65.6943 219.152 66.1729C219.152 67.0615 219.676 67.6882 220.725 68.0527C221.773 68.4173 223.163 68.668 224.895 68.8047C226.626 68.9186 228.597 68.9642 230.808 68.9414C233.018 68.8958 235.274 68.93 237.575 69.0439C239.899 69.1351 242.167 69.3402 244.377 69.6592C246.61 69.9782 248.581 70.5479 250.29 71.3682C252.022 72.1885 253.412 73.305 254.46 74.7178C255.508 76.1533 256.032 77.9876 256.032 80.2207ZM225.236 50.416C225.236 52.7858 225.567 54.6201 226.228 55.9189C226.888 57.195 228.153 57.833 230.021 57.833C231.913 57.833 233.189 57.195 233.85 55.9189C234.51 54.6201 234.841 52.7858 234.841 50.416C234.841 48.069 234.51 46.2803 233.85 45.0498C233.189 43.8193 231.913 43.2041 230.021 43.2041C228.153 43.2041 226.888 43.8193 226.228 45.0498C225.567 46.2803 225.236 48.069 225.236 50.416ZM231.56 80.7334C229.121 80.7334 226.911 80.665 224.929 80.5283C222.946 80.4144 221.158 80.2435 219.562 80.0156C219.335 80.403 219.221 80.8018 219.221 81.2119C219.221 82.8525 220.109 83.9235 221.887 84.4248C223.664 84.9489 226 85.2109 228.894 85.2109C232.767 85.2109 235.593 84.9717 237.37 84.4932C239.17 84.0374 240.07 83.388 240.07 82.5449C240.07 82.112 239.808 81.7816 239.284 81.5537C238.783 81.3258 238.111 81.1436 237.268 81.0068C236.447 80.8701 235.536 80.7904 234.533 80.7676C233.531 80.7448 232.539 80.7334 231.56 80.7334ZM293.186 52.1592C293.186 51.2705 293.072 50.5641 292.844 50.04C292.639 49.4932 292.365 49.083 292.023 48.8096C291.704 48.5133 291.34 48.3197 290.93 48.2285C290.52 48.1374 290.121 48.0918 289.733 48.0918C288.252 48.0918 287.147 48.5247 286.418 49.3906C285.689 50.2565 285.324 51.487 285.324 53.082V57.9697C285.324 59.1774 285.529 60.0433 285.939 60.5674C286.372 61.0687 287.193 61.3193 288.4 61.3193H290.246V74H261.672V61.3193H263.688C264.623 61.3193 265.329 61.0231 265.808 60.4307C266.309 59.8154 266.56 59.0863 266.56 58.2432V51.749C266.56 50.6781 266.241 49.9603 265.603 49.5957C264.987 49.2083 264.281 49.0146 263.483 49.0146H261.672V36.334H281.975L281.257 45.7334H281.838C282.339 42.2243 283.877 39.5241 286.452 37.6328C289.027 35.7415 292.525 34.7959 296.945 34.7959C300.067 34.7959 302.608 35.2402 304.567 36.1289C306.527 37.0176 308.042 38.1455 309.113 39.5127C310.207 40.8571 310.948 42.3268 311.335 43.9219C311.722 45.4941 311.916 46.9753 311.916 48.3652V57.9697C311.916 59.1774 312.121 60.0433 312.531 60.5674C312.964 61.0687 313.785 61.3193 314.992 61.3193H316.838V74H293.186V52.1592ZM338.439 57.2861C338.531 60.6813 339.169 63.0283 340.354 64.3271C341.561 65.6032 343.282 66.2412 345.515 66.2412C346.267 66.2412 346.996 66.1387 347.702 65.9336C348.431 65.7057 349.104 65.3525 349.719 64.874C350.334 64.3727 350.858 63.7233 351.291 62.9258C351.747 62.1055 352.043 61.0801 352.18 59.8496H364.621C364.165 62.7891 363.322 65.25 362.092 67.2324C360.884 69.2148 359.323 70.8213 357.409 72.0518C355.495 73.2594 353.262 74.1253 350.71 74.6494C348.181 75.1963 345.355 75.4697 342.233 75.4697C339.021 75.4697 336.001 75.0596 333.176 74.2393C330.35 73.4189 327.867 72.1771 325.725 70.5137C323.605 68.8275 321.942 66.7197 320.734 64.1904C319.527 61.6383 318.923 58.6077 318.923 55.0986C318.923 51.749 319.493 48.8096 320.632 46.2803C321.771 43.751 323.366 41.6432 325.417 39.957C327.491 38.248 329.929 36.9606 332.731 36.0947C335.557 35.2288 338.656 34.7959 342.028 34.7959C346.175 34.7959 349.742 35.3428 352.727 36.4365C355.712 37.5303 358.15 39.057 360.041 41.0166C361.932 42.9762 363.322 45.3346 364.211 48.0918C365.1 50.849 365.521 53.9137 365.476 57.2861H338.439ZM343.498 44.0244C341.903 44.0244 340.718 44.5941 339.943 45.7334C339.191 46.8499 338.69 48.707 338.439 51.3047H348.454C348.317 49.0716 347.839 47.3057 347.019 46.0068C346.198 44.6852 345.025 44.0244 343.498 44.0244ZM443.986 36.1973C443.986 43.4889 440.192 47.4766 432.604 48.1602V48.5361C436.569 48.6273 439.691 49.7096 441.97 51.7832C444.248 53.8568 445.388 56.8532 445.388 60.7725C445.388 62.4131 445.194 64.0309 444.807 65.626C444.419 67.1982 443.576 68.5996 442.277 69.8301C441.001 71.0605 439.144 72.0632 436.706 72.8379C434.291 73.6126 431.032 74 426.931 74H389.333V61.3193C391.338 61.3193 392.774 61.0573 393.64 60.5332C394.506 59.9863 394.938 58.9723 394.938 57.4912V40.1963C394.938 38.6924 394.506 37.6784 393.64 37.1543C392.774 36.6074 391.338 36.334 389.333 36.334V23.6533H429.289C432.434 23.6533 434.974 24.0065 436.911 24.7129C438.848 25.4193 440.34 26.3535 441.389 27.5156C442.437 28.6777 443.132 30.0221 443.474 31.5488C443.815 33.0527 443.986 34.6022 443.986 36.1973ZM420.197 61.3193C422.111 61.3193 423.433 60.9548 424.162 60.2256C424.891 59.4736 425.256 58.2318 425.256 56.5C425.256 54.7682 424.891 53.515 424.162 52.7402C423.433 51.9427 422.111 51.5439 420.197 51.5439H415.104V61.3193H420.197ZM415.104 45.4941H420.266C421.678 45.4941 422.692 45.0498 423.308 44.1611C423.946 43.2497 424.265 42.1559 424.265 40.8799C424.265 39.6722 423.946 38.6126 423.308 37.7012C422.692 36.7897 421.678 36.334 420.266 36.334H415.104V45.4941ZM448.19 55.0986C448.19 51.749 448.771 48.8096 449.934 46.2803C451.096 43.751 452.748 41.6432 454.89 39.957C457.054 38.248 459.652 36.9606 462.683 36.0947C465.713 35.2288 469.097 34.7959 472.834 34.7959C476.571 34.7959 479.955 35.2288 482.985 36.0947C486.016 36.9606 488.602 38.248 490.744 39.957C492.886 41.6432 494.538 43.751 495.7 46.2803C496.885 48.8096 497.478 51.749 497.478 55.0986C497.478 58.4027 496.885 61.3307 495.7 63.8828C494.538 66.4349 492.886 68.5768 490.744 70.3086C488.602 72.0176 486.016 73.305 482.985 74.1709C479.955 75.0368 476.571 75.4697 472.834 75.4697C469.097 75.4697 465.713 75.0368 462.683 74.1709C459.652 73.305 457.054 72.0176 454.89 70.3086C452.748 68.5768 451.096 66.4349 449.934 63.8828C448.771 61.3307 448.19 58.4027 448.19 55.0986ZM467.639 55.0986C467.639 57.0127 467.718 58.6419 467.878 59.9863C468.06 61.3079 468.345 62.3789 468.732 63.1992C469.12 63.9967 469.644 64.5892 470.305 64.9766C470.965 65.3411 471.809 65.5234 472.834 65.5234C473.859 65.5234 474.691 65.3411 475.329 64.9766C475.99 64.5892 476.514 63.9967 476.901 63.1992C477.312 62.3789 477.596 61.3079 477.756 59.9863C477.915 58.6419 477.995 57.0127 477.995 55.0986C477.995 51.2705 477.631 48.5931 476.901 47.0664C476.195 45.5169 474.839 44.7422 472.834 44.7422C471.809 44.7422 470.965 44.9245 470.305 45.2891C469.644 45.6309 469.12 46.2119 468.732 47.0322C468.345 47.8298 468.06 48.9007 467.878 50.2451C467.718 51.5667 467.639 53.1846 467.639 55.0986ZM531.418 76.8027C530.643 78.4889 529.846 80.2891 529.025 82.2031C528.205 84.1172 527.123 85.8831 525.778 87.501C524.457 89.1416 522.748 90.4974 520.651 91.5684C518.555 92.6393 515.821 93.1748 512.448 93.1748C510.078 93.1748 508.005 92.8672 506.228 92.252C504.45 91.6595 502.98 90.8506 501.818 89.8252C500.656 88.7998 499.79 87.6149 499.221 86.2705C498.674 84.9489 498.4 83.5931 498.4 82.2031C498.4 79.446 499.243 77.2699 500.93 75.6748C502.639 74.1025 504.758 73.3164 507.287 73.3164C508.768 73.3164 510.01 73.5329 511.013 73.9658C512.015 74.3988 512.836 74.957 513.474 75.6406C514.112 76.3242 514.556 77.0762 514.807 77.8965C515.057 78.7168 515.183 79.4915 515.183 80.2207C515.183 81.8613 514.772 83.1146 513.952 83.9805C513.155 84.8464 512.186 85.3932 511.047 85.6211C511.138 85.7122 511.286 85.7806 511.491 85.8262C511.765 85.9629 512.323 86.0312 513.166 86.0312C513.964 86.0312 514.67 85.8262 515.285 85.416C515.923 85.0286 516.493 84.5387 516.994 83.9463C517.518 83.3766 517.963 82.75 518.327 82.0664C518.715 81.4056 519.022 80.7904 519.25 80.2207L519.318 80.0156L504.758 51.9541C504.53 51.43 504.279 50.9857 504.006 50.6211C503.755 50.2565 503.436 49.9603 503.049 49.7324C502.684 49.4818 502.217 49.2995 501.647 49.1855C501.101 49.0716 500.406 49.0146 499.562 49.0146V36.334H527.009V49.0146C525.573 49.0146 524.628 49.2311 524.172 49.6641C523.739 50.0742 523.705 50.7236 524.069 51.6123L528.205 60.4307L532.204 51.6123C532.569 50.8148 532.523 50.1882 532.067 49.7324C531.634 49.2539 530.7 49.0146 529.265 49.0146V36.334H548.303V49.0146C546.617 49.0146 545.432 49.2539 544.748 49.7324C544.087 50.1882 543.518 50.9287 543.039 51.9541L531.418 76.8027ZM590.583 48.8096H581.184C580.523 47.1689 579.497 45.8701 578.107 44.9131C576.717 43.9561 575.271 43.4775 573.767 43.4775C572.741 43.4775 571.921 43.6712 571.306 44.0586C570.713 44.4232 570.417 44.9814 570.417 45.7334C570.417 46.6676 570.941 47.374 571.989 47.8525C573.037 48.3083 574.348 48.7184 575.92 49.083C577.515 49.4476 579.235 49.8919 581.081 50.416C582.927 50.9173 584.636 51.6465 586.208 52.6035C587.803 53.5605 589.125 54.848 590.173 56.4658C591.221 58.0837 591.745 60.2142 591.745 62.8574C591.745 64.9082 591.289 66.6969 590.378 68.2236C589.466 69.7503 588.213 71.0036 586.618 71.9834C585.046 72.9632 583.189 73.6924 581.047 74.1709C578.905 74.6722 576.592 74.9229 574.108 74.9229C571.693 74.9229 569.403 74.6836 567.238 74.2051C565.096 73.7493 563.046 72.9632 561.086 71.8467L560.744 74.2051H551.721V60.499H561.086C561.975 62.3219 563.091 63.7347 564.436 64.7373C565.803 65.7399 567.307 66.2412 568.947 66.2412C570.201 66.2412 571.089 66.0133 571.613 65.5576C572.16 65.0791 572.434 64.555 572.434 63.9854C572.434 63.0511 571.91 62.3333 570.861 61.832C569.813 61.3079 568.514 60.8522 566.965 60.4648C565.438 60.0547 563.752 59.6104 561.906 59.1318C560.061 58.6305 558.363 57.9128 556.813 56.9785C555.287 56.0443 553.999 54.791 552.951 53.2188C551.903 51.6237 551.379 49.5387 551.379 46.9639C551.379 45.1182 551.789 43.432 552.609 41.9053C553.452 40.3786 554.649 39.0911 556.198 38.043C557.748 36.9948 559.571 36.1973 561.667 35.6504C563.763 35.0807 566.065 34.7959 568.571 34.7959C571.374 34.7959 573.892 35.1149 576.125 35.7529C578.381 36.3682 580.067 37.0518 581.184 37.8037L581.525 35.377H590.583V48.8096Z" fill="#FEE950"/>
<path d="M32.7441 33.334C30.7389 33.334 29.3034 33.6074 28.4375 34.1543C27.5944 34.6784 27.1729 35.6924 27.1729 37.1963V58.3193H34.0088C34.943 58.3193 35.7292 58.2282 36.3672 58.0459C37.0052 57.8636 37.5065 57.4876 37.8711 56.918C38.2357 56.3255 38.4863 55.5052 38.623 54.457C38.7826 53.4089 38.8623 52.0189 38.8623 50.2871H50.8252V71H1.40137V58.3193C3.40658 58.3193 4.84212 58.0573 5.70801 57.5332C6.57389 56.9863 7.00684 55.9723 7.00684 54.4912V37.1963C7.00684 35.6924 6.57389 34.6784 5.70801 34.1543C4.84212 33.6074 3.40658 33.334 1.40137 33.334V20.6533H32.7441V33.334ZM71.8799 38.085C70.7178 38.085 69.7152 38.1761 68.8721 38.3584C68.0518 38.5179 67.3454 38.7116 66.7529 38.9395C66.1605 39.1673 65.6706 39.4294 65.2832 39.7256C64.8958 39.999 64.554 40.2497 64.2578 40.4775L64.5996 40.8193C65.0326 40.5915 65.4997 40.3636 66.001 40.1357C66.5251 39.9079 67.1859 39.7939 67.9834 39.7939C69.3278 39.7939 70.4899 40.2383 71.4697 41.127C72.4495 41.9928 72.9395 43.3828 72.9395 45.2969C72.9395 47.1198 72.1875 48.5895 70.6836 49.7061C69.2025 50.7998 67.2087 51.3467 64.7021 51.3467C62.3096 51.3467 60.3955 50.6631 58.96 49.2959C57.5472 47.9059 56.8408 45.9463 56.8408 43.417C56.8408 42.027 57.2282 40.6484 58.0029 39.2812C58.7777 37.8913 59.974 36.6494 61.5918 35.5557C63.2324 34.4619 65.306 33.5618 67.8125 32.8555C70.3418 32.1491 73.3838 31.7959 76.9385 31.7959C81.1768 31.7959 84.6403 32.1947 87.3291 32.9922C90.0179 33.7897 92.1029 34.8151 93.584 36.0684C95.0879 37.3216 96.1133 38.7458 96.6602 40.3408C97.2298 41.9359 97.5146 43.5423 97.5146 45.1602V58.5244C97.5146 60.598 97.583 62.0107 97.7197 62.7627C97.8564 63.4919 98.3691 63.8564 99.2578 63.8564C99.9642 63.8564 100.454 63.526 100.728 62.8652C101.024 62.1816 101.172 61.0195 101.172 59.3789V55.1064H105.068V59.4473C105.068 61.498 104.897 63.321 104.556 64.916C104.214 66.4883 103.564 67.8441 102.607 68.9834C101.65 70.0999 100.352 70.943 98.7109 71.5127C97.0703 72.1051 94.974 72.4014 92.4219 72.4014C90.1204 72.4014 88.2064 72.1507 86.6797 71.6494C85.1758 71.1709 83.9795 70.5671 83.0908 69.8379C82.2021 69.1087 81.5641 68.3568 81.1768 67.582C80.8122 66.7845 80.6299 66.0781 80.6299 65.4629H80.083C79.9463 66.3971 79.5475 67.2858 78.8867 68.1289C78.2487 68.972 77.3486 69.724 76.1865 70.3848C75.0472 71.0228 73.6686 71.5355 72.0508 71.9229C70.4557 72.333 68.6328 72.5381 66.582 72.5381C64.6224 72.5381 62.8337 72.3444 61.2158 71.957C59.6208 71.5924 58.2536 71.0114 57.1143 70.2139C55.9977 69.3936 55.1204 68.3454 54.4824 67.0693C53.8672 65.7705 53.5596 64.2324 53.5596 62.4551C53.5596 60.2676 54.1748 58.5472 55.4053 57.2939C56.6357 56.0179 58.1852 55.0153 60.0537 54.2861C61.9222 53.5342 63.9502 52.9303 66.1377 52.4746C68.348 51.9961 70.3874 51.4264 72.2559 50.7656C74.1243 50.1048 75.6738 49.2503 76.9043 48.2021C78.1348 47.154 78.75 45.6729 78.75 43.7588C78.75 42.0498 78.2145 40.6826 77.1436 39.6572C76.0726 38.609 74.318 38.085 71.8799 38.085ZM78.75 52.8848C78.2487 53.6139 77.6221 54.2064 76.8701 54.6621C76.1182 55.0951 75.389 55.528 74.6826 55.9609C73.999 56.3711 73.3952 56.8724 72.8711 57.4648C72.3698 58.0345 72.1191 58.8092 72.1191 59.7891C72.1191 60.541 72.3242 61.2246 72.7344 61.8398C73.1445 62.4323 73.9421 62.7285 75.127 62.7285C76.1979 62.7285 77.0638 62.3184 77.7246 61.498C78.4082 60.6549 78.75 59.4814 78.75 57.9775V52.8848ZM146.118 45.8096H136.719C136.058 44.1689 135.033 42.8701 133.643 41.9131C132.253 40.9561 130.806 40.4775 129.302 40.4775C128.276 40.4775 127.456 40.6712 126.841 41.0586C126.248 41.4232 125.952 41.9814 125.952 42.7334C125.952 43.6676 126.476 44.374 127.524 44.8525C128.573 45.3083 129.883 45.7184 131.455 46.083C133.05 46.4476 134.771 46.8919 136.616 47.416C138.462 47.9173 140.171 48.6465 141.743 49.6035C143.338 50.5605 144.66 51.848 145.708 53.4658C146.756 55.0837 147.28 57.2142 147.28 59.8574C147.28 61.9082 146.825 63.6969 145.913 65.2236C145.002 66.7503 143.748 68.0036 142.153 68.9834C140.581 69.9632 138.724 70.6924 136.582 71.1709C134.44 71.6722 132.127 71.9229 129.644 71.9229C127.228 71.9229 124.938 71.6836 122.773 71.2051C120.632 70.7493 118.581 69.9632 116.621 68.8467L116.279 71.2051H107.256V57.499H116.621C117.51 59.3219 118.626 60.7347 119.971 61.7373C121.338 62.7399 122.842 63.2412 124.482 63.2412C125.736 63.2412 126.624 63.0133 127.148 62.5576C127.695 62.0791 127.969 61.555 127.969 60.9854C127.969 60.0511 127.445 59.3333 126.396 58.832C125.348 58.3079 124.049 57.8522 122.5 57.4648C120.973 57.0547 119.287 56.6104 117.441 56.1318C115.596 55.6305 113.898 54.9128 112.349 53.9785C110.822 53.0443 109.535 51.791 108.486 50.2188C107.438 48.6237 106.914 46.5387 106.914 43.9639C106.914 42.1182 107.324 40.432 108.145 38.9053C108.988 37.3786 110.184 36.0911 111.733 35.043C113.283 33.9948 115.106 33.1973 117.202 32.6504C119.299 32.0807 121.6 31.7959 124.106 31.7959C126.909 31.7959 129.427 32.1149 131.66 32.7529C133.916 33.3682 135.602 34.0518 136.719 34.8037L137.061 32.377H146.118V45.8096ZM168.813 38.085C167.651 38.085 166.649 38.1761 165.806 38.3584C164.985 38.5179 164.279 38.7116 163.687 38.9395C163.094 39.1673 162.604 39.4294 162.217 39.7256C161.829 39.999 161.488 40.2497 161.191 40.4775L161.533 40.8193C161.966 40.5915 162.433 40.3636 162.935 40.1357C163.459 39.9079 164.119 39.7939 164.917 39.7939C166.261 39.7939 167.424 40.2383 168.403 41.127C169.383 41.9928 169.873 43.3828 169.873 45.2969C169.873 47.1198 169.121 48.5895 167.617 49.7061C166.136 50.7998 164.142 51.3467 161.636 51.3467C159.243 51.3467 157.329 50.6631 155.894 49.2959C154.481 47.9059 153.774 45.9463 153.774 43.417C153.774 42.027 154.162 40.6484 154.937 39.2812C155.711 37.8913 156.908 36.6494 158.525 35.5557C160.166 34.4619 162.24 33.5618 164.746 32.8555C167.275 32.1491 170.317 31.7959 173.872 31.7959C178.11 31.7959 181.574 32.1947 184.263 32.9922C186.951 33.7897 189.036 34.8151 190.518 36.0684C192.021 37.3216 193.047 38.7458 193.594 40.3408C194.163 41.9359 194.448 43.5423 194.448 45.1602V58.5244C194.448 60.598 194.517 62.0107 194.653 62.7627C194.79 63.4919 195.303 63.8564 196.191 63.8564C196.898 63.8564 197.388 63.526 197.661 62.8652C197.957 62.1816 198.105 61.0195 198.105 59.3789V55.1064H202.002V59.4473C202.002 61.498 201.831 63.321 201.489 64.916C201.147 66.4883 200.498 67.8441 199.541 68.9834C198.584 70.0999 197.285 70.943 195.645 71.5127C194.004 72.1051 191.908 72.4014 189.355 72.4014C187.054 72.4014 185.14 72.1507 183.613 71.6494C182.109 71.1709 180.913 70.5671 180.024 69.8379C179.136 69.1087 178.498 68.3568 178.11 67.582C177.746 66.7845 177.563 66.0781 177.563 65.4629H177.017C176.88 66.3971 176.481 67.2858 175.82 68.1289C175.182 68.972 174.282 69.724 173.12 70.3848C171.981 71.0228 170.602 71.5355 168.984 71.9229C167.389 72.333 165.566 72.5381 163.516 72.5381C161.556 72.5381 159.767 72.3444 158.149 71.957C156.554 71.5924 155.187 71.0114 154.048 70.2139C152.931 69.3936 152.054 68.3454 151.416 67.0693C150.801 65.7705 150.493 64.2324 150.493 62.4551C150.493 60.2676 151.108 58.5472 152.339 57.2939C153.569 56.0179 155.119 55.0153 156.987 54.2861C158.856 53.5342 160.884 52.9303 163.071 52.4746C165.282 51.9961 167.321 51.4264 169.189 50.7656C171.058 50.1048 172.607 49.2503 173.838 48.2021C175.068 47.154 175.684 45.6729 175.684 43.7588C175.684 42.0498 175.148 40.6826 174.077 39.6572C173.006 38.609 171.252 38.085 168.813 38.085ZM175.684 52.8848C175.182 53.6139 174.556 54.2064 173.804 54.6621C173.052 55.0951 172.323 55.528 171.616 55.9609C170.933 56.3711 170.329 56.8724 169.805 57.4648C169.303 58.0345 169.053 58.8092 169.053 59.7891C169.053 60.541 169.258 61.2246 169.668 61.8398C170.078 62.4323 170.876 62.7285 172.061 62.7285C173.132 62.7285 173.997 62.3184 174.658 61.498C175.342 60.6549 175.684 59.4814 175.684 57.9775V52.8848ZM253.032 77.2207C253.032 81.0944 250.799 84.0566 246.333 86.1074C241.89 88.1582 235.452 89.1836 227.021 89.1836C223.968 89.1836 220.994 89.138 218.101 89.0469C215.207 88.9557 212.643 88.6481 210.41 88.124C208.177 87.6227 206.377 86.8138 205.01 85.6973C203.665 84.5807 202.993 82.9971 202.993 80.9463C202.993 79.3057 203.517 77.9613 204.565 76.9131C205.614 75.8649 206.742 75.0332 207.949 74.418C206.468 73.5293 205.454 72.5381 204.907 71.4443C204.383 70.3506 204.121 69.1543 204.121 67.8555C204.121 66.306 204.679 64.8249 205.796 63.4121C206.912 61.9766 208.519 60.5866 210.615 59.2422C208.564 57.8978 206.992 56.2572 205.898 54.3203C204.805 52.3835 204.258 50.082 204.258 47.416C204.258 44.8411 204.793 42.5853 205.864 40.6484C206.935 38.7116 208.473 37.0938 210.479 35.7949C212.484 34.4961 214.876 33.5049 217.656 32.8213C220.436 32.1377 223.558 31.7959 227.021 31.7959C230.736 31.7959 234.085 32.1947 237.07 32.9922C240.078 33.7897 242.63 34.9974 244.727 36.6152C245.137 36.0684 245.695 35.5329 246.401 35.0088C246.994 34.5986 247.746 34.2227 248.657 33.8809C249.569 33.5163 250.685 33.334 252.007 33.334H255.151V46.0146H252.896C251.916 46.0146 251.164 46.2881 250.64 46.835C250.138 47.359 249.842 47.8717 249.751 48.373C248.953 53.181 246.629 56.8496 242.778 59.3789C238.927 61.9082 233.675 63.1729 227.021 63.1729C223.285 63.1729 219.901 62.7741 216.87 61.9766C216.392 62.2956 216.152 62.6943 216.152 63.1729C216.152 64.0615 216.676 64.6882 217.725 65.0527C218.773 65.4173 220.163 65.668 221.895 65.8047C223.626 65.9186 225.597 65.9642 227.808 65.9414C230.018 65.8958 232.274 65.93 234.575 66.0439C236.899 66.1351 239.167 66.3402 241.377 66.6592C243.61 66.9782 245.581 67.5479 247.29 68.3682C249.022 69.1885 250.412 70.305 251.46 71.7178C252.508 73.1533 253.032 74.9876 253.032 77.2207ZM222.236 47.416C222.236 49.7858 222.567 51.6201 223.228 52.9189C223.888 54.195 225.153 54.833 227.021 54.833C228.913 54.833 230.189 54.195 230.85 52.9189C231.51 51.6201 231.841 49.7858 231.841 47.416C231.841 45.069 231.51 43.2803 230.85 42.0498C230.189 40.8193 228.913 40.2041 227.021 40.2041C225.153 40.2041 223.888 40.8193 223.228 42.0498C222.567 43.2803 222.236 45.069 222.236 47.416ZM228.56 77.7334C226.121 77.7334 223.911 77.665 221.929 77.5283C219.946 77.4144 218.158 77.2435 216.562 77.0156C216.335 77.403 216.221 77.8018 216.221 78.2119C216.221 79.8525 217.109 80.9235 218.887 81.4248C220.664 81.9489 223 82.2109 225.894 82.2109C229.767 82.2109 232.593 81.9717 234.37 81.4932C236.17 81.0374 237.07 80.388 237.07 79.5449C237.07 79.112 236.808 78.7816 236.284 78.5537C235.783 78.3258 235.111 78.1436 234.268 78.0068C233.447 77.8701 232.536 77.7904 231.533 77.7676C230.531 77.7448 229.539 77.7334 228.56 77.7334ZM290.186 49.1592C290.186 48.2705 290.072 47.5641 289.844 47.04C289.639 46.4932 289.365 46.083 289.023 45.8096C288.704 45.5133 288.34 45.3197 287.93 45.2285C287.52 45.1374 287.121 45.0918 286.733 45.0918C285.252 45.0918 284.147 45.5247 283.418 46.3906C282.689 47.2565 282.324 48.487 282.324 50.082V54.9697C282.324 56.1774 282.529 57.0433 282.939 57.5674C283.372 58.0687 284.193 58.3193 285.4 58.3193H287.246V71H258.672V58.3193H260.688C261.623 58.3193 262.329 58.0231 262.808 57.4307C263.309 56.8154 263.56 56.0863 263.56 55.2432V48.749C263.56 47.6781 263.241 46.9603 262.603 46.5957C261.987 46.2083 261.281 46.0146 260.483 46.0146H258.672V33.334H278.975L278.257 42.7334H278.838C279.339 39.2243 280.877 36.5241 283.452 34.6328C286.027 32.7415 289.525 31.7959 293.945 31.7959C297.067 31.7959 299.608 32.2402 301.567 33.1289C303.527 34.0176 305.042 35.1455 306.113 36.5127C307.207 37.8571 307.948 39.3268 308.335 40.9219C308.722 42.4941 308.916 43.9753 308.916 45.3652V54.9697C308.916 56.1774 309.121 57.0433 309.531 57.5674C309.964 58.0687 310.785 58.3193 311.992 58.3193H313.838V71H290.186V49.1592ZM335.439 54.2861C335.531 57.6813 336.169 60.0283 337.354 61.3271C338.561 62.6032 340.282 63.2412 342.515 63.2412C343.267 63.2412 343.996 63.1387 344.702 62.9336C345.431 62.7057 346.104 62.3525 346.719 61.874C347.334 61.3727 347.858 60.7233 348.291 59.9258C348.747 59.1055 349.043 58.0801 349.18 56.8496H361.621C361.165 59.7891 360.322 62.25 359.092 64.2324C357.884 66.2148 356.323 67.8213 354.409 69.0518C352.495 70.2594 350.262 71.1253 347.71 71.6494C345.181 72.1963 342.355 72.4697 339.233 72.4697C336.021 72.4697 333.001 72.0596 330.176 71.2393C327.35 70.4189 324.867 69.1771 322.725 67.5137C320.605 65.8275 318.942 63.7197 317.734 61.1904C316.527 58.6383 315.923 55.6077 315.923 52.0986C315.923 48.749 316.493 45.8096 317.632 43.2803C318.771 40.751 320.366 38.6432 322.417 36.957C324.491 35.248 326.929 33.9606 329.731 33.0947C332.557 32.2288 335.656 31.7959 339.028 31.7959C343.175 31.7959 346.742 32.3428 349.727 33.4365C352.712 34.5303 355.15 36.057 357.041 38.0166C358.932 39.9762 360.322 42.3346 361.211 45.0918C362.1 47.849 362.521 50.9137 362.476 54.2861H335.439ZM340.498 41.0244C338.903 41.0244 337.718 41.5941 336.943 42.7334C336.191 43.8499 335.69 45.707 335.439 48.3047H345.454C345.317 46.0716 344.839 44.3057 344.019 43.0068C343.198 41.6852 342.025 41.0244 340.498 41.0244ZM440.986 33.1973C440.986 40.4889 437.192 44.4766 429.604 45.1602V45.5361C433.569 45.6273 436.691 46.7096 438.97 48.7832C441.248 50.8568 442.388 53.8532 442.388 57.7725C442.388 59.4131 442.194 61.0309 441.807 62.626C441.419 64.1982 440.576 65.5996 439.277 66.8301C438.001 68.0605 436.144 69.0632 433.706 69.8379C431.291 70.6126 428.032 71 423.931 71H386.333V58.3193C388.338 58.3193 389.774 58.0573 390.64 57.5332C391.506 56.9863 391.938 55.9723 391.938 54.4912V37.1963C391.938 35.6924 391.506 34.6784 390.64 34.1543C389.774 33.6074 388.338 33.334 386.333 33.334V20.6533H426.289C429.434 20.6533 431.974 21.0065 433.911 21.7129C435.848 22.4193 437.34 23.3535 438.389 24.5156C439.437 25.6777 440.132 27.0221 440.474 28.5488C440.815 30.0527 440.986 31.6022 440.986 33.1973ZM417.197 58.3193C419.111 58.3193 420.433 57.9548 421.162 57.2256C421.891 56.4736 422.256 55.2318 422.256 53.5C422.256 51.7682 421.891 50.515 421.162 49.7402C420.433 48.9427 419.111 48.5439 417.197 48.5439H412.104V58.3193H417.197ZM412.104 42.4941H417.266C418.678 42.4941 419.692 42.0498 420.308 41.1611C420.946 40.2497 421.265 39.1559 421.265 37.8799C421.265 36.6722 420.946 35.6126 420.308 34.7012C419.692 33.7897 418.678 33.334 417.266 33.334H412.104V42.4941ZM445.19 52.0986C445.19 48.749 445.771 45.8096 446.934 43.2803C448.096 40.751 449.748 38.6432 451.89 36.957C454.054 35.248 456.652 33.9606 459.683 33.0947C462.713 32.2288 466.097 31.7959 469.834 31.7959C473.571 31.7959 476.955 32.2288 479.985 33.0947C483.016 33.9606 485.602 35.248 487.744 36.957C489.886 38.6432 491.538 40.751 492.7 43.2803C493.885 45.8096 494.478 48.749 494.478 52.0986C494.478 55.4027 493.885 58.3307 492.7 60.8828C491.538 63.4349 489.886 65.5768 487.744 67.3086C485.602 69.0176 483.016 70.305 479.985 71.1709C476.955 72.0368 473.571 72.4697 469.834 72.4697C466.097 72.4697 462.713 72.0368 459.683 71.1709C456.652 70.305 454.054 69.0176 451.89 67.3086C449.748 65.5768 448.096 63.4349 446.934 60.8828C445.771 58.3307 445.19 55.4027 445.19 52.0986ZM464.639 52.0986C464.639 54.0127 464.718 55.6419 464.878 56.9863C465.06 58.3079 465.345 59.3789 465.732 60.1992C466.12 60.9967 466.644 61.5892 467.305 61.9766C467.965 62.3411 468.809 62.5234 469.834 62.5234C470.859 62.5234 471.691 62.3411 472.329 61.9766C472.99 61.5892 473.514 60.9967 473.901 60.1992C474.312 59.3789 474.596 58.3079 474.756 56.9863C474.915 55.6419 474.995 54.0127 474.995 52.0986C474.995 48.2705 474.631 45.5931 473.901 44.0664C473.195 42.5169 471.839 41.7422 469.834 41.7422C468.809 41.7422 467.965 41.9245 467.305 42.2891C466.644 42.6309 466.12 43.2119 465.732 44.0322C465.345 44.8298 465.06 45.9007 464.878 47.2451C464.718 48.5667 464.639 50.1846 464.639 52.0986ZM528.418 73.8027C527.643 75.4889 526.846 77.2891 526.025 79.2031C525.205 81.1172 524.123 82.8831 522.778 84.501C521.457 86.1416 519.748 87.4974 517.651 88.5684C515.555 89.6393 512.821 90.1748 509.448 90.1748C507.078 90.1748 505.005 89.8672 503.228 89.252C501.45 88.6595 499.98 87.8506 498.818 86.8252C497.656 85.7998 496.79 84.6149 496.221 83.2705C495.674 81.9489 495.4 80.5931 495.4 79.2031C495.4 76.446 496.243 74.2699 497.93 72.6748C499.639 71.1025 501.758 70.3164 504.287 70.3164C505.768 70.3164 507.01 70.5329 508.013 70.9658C509.015 71.3988 509.836 71.957 510.474 72.6406C511.112 73.3242 511.556 74.0762 511.807 74.8965C512.057 75.7168 512.183 76.4915 512.183 77.2207C512.183 78.8613 511.772 80.1146 510.952 80.9805C510.155 81.8464 509.186 82.3932 508.047 82.6211C508.138 82.7122 508.286 82.7806 508.491 82.8262C508.765 82.9629 509.323 83.0312 510.166 83.0312C510.964 83.0312 511.67 82.8262 512.285 82.416C512.923 82.0286 513.493 81.5387 513.994 80.9463C514.518 80.3766 514.963 79.75 515.327 79.0664C515.715 78.4056 516.022 77.7904 516.25 77.2207L516.318 77.0156L501.758 48.9541C501.53 48.43 501.279 47.9857 501.006 47.6211C500.755 47.2565 500.436 46.9603 500.049 46.7324C499.684 46.4818 499.217 46.2995 498.647 46.1855C498.101 46.0716 497.406 46.0146 496.562 46.0146V33.334H524.009V46.0146C522.573 46.0146 521.628 46.2311 521.172 46.6641C520.739 47.0742 520.705 47.7236 521.069 48.6123L525.205 57.4307L529.204 48.6123C529.569 47.8148 529.523 47.1882 529.067 46.7324C528.634 46.2539 527.7 46.0146 526.265 46.0146V33.334H545.303V46.0146C543.617 46.0146 542.432 46.2539 541.748 46.7324C541.087 47.1882 540.518 47.9287 540.039 48.9541L528.418 73.8027ZM587.583 45.8096H578.184C577.523 44.1689 576.497 42.8701 575.107 41.9131C573.717 40.9561 572.271 40.4775 570.767 40.4775C569.741 40.4775 568.921 40.6712 568.306 41.0586C567.713 41.4232 567.417 41.9814 567.417 42.7334C567.417 43.6676 567.941 44.374 568.989 44.8525C570.037 45.3083 571.348 45.7184 572.92 46.083C574.515 46.4476 576.235 46.8919 578.081 47.416C579.927 47.9173 581.636 48.6465 583.208 49.6035C584.803 50.5605 586.125 51.848 587.173 53.4658C588.221 55.0837 588.745 57.2142 588.745 59.8574C588.745 61.9082 588.289 63.6969 587.378 65.2236C586.466 66.7503 585.213 68.0036 583.618 68.9834C582.046 69.9632 580.189 70.6924 578.047 71.1709C575.905 71.6722 573.592 71.9229 571.108 71.9229C568.693 71.9229 566.403 71.6836 564.238 71.2051C562.096 70.7493 560.046 69.9632 558.086 68.8467L557.744 71.2051H548.721V57.499H558.086C558.975 59.3219 560.091 60.7347 561.436 61.7373C562.803 62.7399 564.307 63.2412 565.947 63.2412C567.201 63.2412 568.089 63.0133 568.613 62.5576C569.16 62.0791 569.434 61.555 569.434 60.9854C569.434 60.0511 568.91 59.3333 567.861 58.832C566.813 58.3079 565.514 57.8522 563.965 57.4648C562.438 57.0547 560.752 56.6104 558.906 56.1318C557.061 55.6305 555.363 54.9128 553.813 53.9785C552.287 53.0443 550.999 51.791 549.951 50.2188C548.903 48.6237 548.379 46.5387 548.379 43.9639C548.379 42.1182 548.789 40.432 549.609 38.9053C550.452 37.3786 551.649 36.0911 553.198 35.043C554.748 33.9948 556.571 33.1973 558.667 32.6504C560.763 32.0807 563.065 31.7959 565.571 31.7959C568.374 31.7959 570.892 32.1149 573.125 32.7529C575.381 33.3682 577.067 34.0518 578.184 34.8037L578.525 32.377H587.583V45.8096Z" fill="#BC0E0E"/>
<path d="M271.586 13.1348C271.602 13.7168 271.711 14.1191 271.914 14.3418C272.121 14.5605 272.416 14.6699 272.799 14.6699C272.928 14.6699 273.053 14.6523 273.174 14.6172C273.299 14.5781 273.414 14.5176 273.52 14.4355C273.625 14.3496 273.715 14.2383 273.789 14.1016C273.867 13.9609 273.918 13.7852 273.941 13.5742H276.074C275.996 14.0781 275.852 14.5 275.641 14.8398C275.434 15.1797 275.166 15.4551 274.838 15.666C274.51 15.873 274.127 16.0215 273.689 16.1113C273.256 16.2051 272.771 16.252 272.236 16.252C271.686 16.252 271.168 16.1816 270.684 16.041C270.199 15.9004 269.773 15.6875 269.406 15.4023C269.043 15.1133 268.758 14.752 268.551 14.3184C268.344 13.8809 268.24 13.3613 268.24 12.7598C268.24 12.1855 268.338 11.6816 268.533 11.248C268.729 10.8145 269.002 10.4531 269.354 10.1641C269.709 9.87109 270.127 9.65039 270.607 9.50195C271.092 9.35352 271.623 9.2793 272.201 9.2793C272.912 9.2793 273.523 9.37305 274.035 9.56055C274.547 9.74805 274.965 10.0098 275.289 10.3457C275.613 10.6816 275.852 11.0859 276.004 11.5586C276.156 12.0312 276.229 12.5566 276.221 13.1348H271.586ZM272.453 10.8613C272.18 10.8613 271.977 10.959 271.844 11.1543C271.715 11.3457 271.629 11.6641 271.586 12.1094H273.303C273.279 11.7266 273.197 11.4238 273.057 11.2012C272.916 10.9746 272.715 10.8613 272.453 10.8613ZM283.604 11.6816H281.992C281.879 11.4004 281.703 11.1777 281.465 11.0137C281.227 10.8496 280.979 10.7676 280.721 10.7676C280.545 10.7676 280.404 10.8008 280.299 10.8672C280.197 10.9297 280.146 11.0254 280.146 11.1543C280.146 11.3145 280.236 11.4355 280.416 11.5176C280.596 11.5957 280.82 11.666 281.09 11.7285C281.363 11.791 281.658 11.8672 281.975 11.957C282.291 12.043 282.584 12.168 282.854 12.332C283.127 12.4961 283.354 12.7168 283.533 12.9941C283.713 13.2715 283.803 13.6367 283.803 14.0898C283.803 14.4414 283.725 14.748 283.568 15.0098C283.412 15.2715 283.197 15.4863 282.924 15.6543C282.654 15.8223 282.336 15.9473 281.969 16.0293C281.602 16.1152 281.205 16.1582 280.779 16.1582C280.365 16.1582 279.973 16.1172 279.602 16.0352C279.234 15.957 278.883 15.8223 278.547 15.6309L278.488 16.0352H276.941V13.6855H278.547C278.699 13.998 278.891 14.2402 279.121 14.4121C279.355 14.584 279.613 14.6699 279.895 14.6699C280.109 14.6699 280.262 14.6309 280.352 14.5527C280.445 14.4707 280.492 14.3809 280.492 14.2832C280.492 14.123 280.402 14 280.223 13.9141C280.043 13.8242 279.82 13.7461 279.555 13.6797C279.293 13.6094 279.004 13.5332 278.688 13.4512C278.371 13.3652 278.08 13.2422 277.814 13.082C277.553 12.9219 277.332 12.707 277.152 12.4375C276.973 12.1641 276.883 11.8066 276.883 11.3652C276.883 11.0488 276.953 10.7598 277.094 10.498C277.238 10.2363 277.443 10.0156 277.709 9.83594C277.975 9.65625 278.287 9.51953 278.646 9.42578C279.006 9.32812 279.4 9.2793 279.83 9.2793C280.311 9.2793 280.742 9.33398 281.125 9.44336C281.512 9.54883 281.801 9.66602 281.992 9.79492L282.051 9.37891H283.604V11.6816ZM288.467 7.36914V9.54297H290.219V11.7168H288.467V13.5156C288.467 13.7734 288.502 13.9844 288.572 14.1484C288.646 14.3125 288.797 14.3945 289.023 14.3945C289.148 14.3945 289.248 14.3711 289.322 14.3242C289.4 14.2734 289.461 14.209 289.504 14.1309C289.551 14.0488 289.58 13.957 289.592 13.8555C289.604 13.75 289.609 13.6367 289.609 13.5156V12.6426H290.283V13.5859C290.283 13.9648 290.242 14.3184 290.16 14.6465C290.082 14.9746 289.945 15.2578 289.75 15.4961C289.559 15.7344 289.297 15.9238 288.965 16.0645C288.633 16.2051 288.215 16.2754 287.711 16.2754C287.152 16.2754 286.707 16.207 286.375 16.0703C286.043 15.9336 285.791 15.7461 285.619 15.5078C285.447 15.2695 285.334 14.9863 285.279 14.6582C285.229 14.3301 285.203 13.9727 285.203 13.5859V11.7168H284.283V9.7832C284.576 9.7832 284.848 9.7207 285.098 9.5957C285.352 9.4668 285.568 9.29102 285.748 9.06836C285.932 8.8418 286.072 8.58398 286.17 8.29492C286.271 8.00586 286.322 7.69727 286.322 7.36914H288.467ZM290.887 14.7637C290.887 14.5645 290.926 14.373 291.004 14.1895C291.086 14.0059 291.191 13.8477 291.32 13.7148C291.453 13.582 291.609 13.4766 291.789 13.3984C291.973 13.3164 292.168 13.2754 292.375 13.2754C292.574 13.2754 292.766 13.3164 292.949 13.3984C293.133 13.4766 293.291 13.582 293.424 13.7148C293.557 13.8477 293.662 14.0059 293.74 14.1895C293.822 14.373 293.863 14.5645 293.863 14.7637C293.863 14.9707 293.822 15.1641 293.74 15.3438C293.662 15.5234 293.557 15.6797 293.424 15.8125C293.291 15.9453 293.133 16.0508 292.949 16.1289C292.766 16.2109 292.574 16.252 292.375 16.252C292.168 16.252 291.973 16.2109 291.789 16.1289C291.609 16.0508 291.453 15.9453 291.32 15.8125C291.191 15.6797 291.086 15.5234 291.004 15.3438C290.926 15.1641 290.887 14.9707 290.887 14.7637ZM300.08 14.4648C300.158 14.3672 300.262 14.2617 300.391 14.1484C300.52 14.0312 300.668 13.9238 300.836 13.8262C301.004 13.7246 301.193 13.6406 301.404 13.5742C301.615 13.5039 301.846 13.4688 302.096 13.4688C302.35 13.4688 302.564 13.4824 302.74 13.5098C302.916 13.5371 303.076 13.5664 303.221 13.5977C303.365 13.625 303.502 13.6523 303.631 13.6797C303.76 13.707 303.902 13.7207 304.059 13.7207C304.355 13.7207 304.588 13.6562 304.756 13.5273C304.924 13.3984 305.008 13.1582 305.008 12.8066H306.162C306.162 13.5527 306.092 14.1465 305.951 14.5879C305.811 15.0254 305.617 15.3594 305.371 15.5898C305.129 15.8164 304.84 15.9609 304.504 16.0234C304.168 16.0859 303.809 16.1172 303.426 16.1172C303.121 16.1172 302.826 16.0879 302.541 16.0293C302.26 15.9707 301.988 15.9082 301.727 15.8418C301.469 15.7715 301.221 15.707 300.982 15.6484C300.748 15.5859 300.527 15.5547 300.32 15.5547C300.141 15.5547 299.998 15.5801 299.893 15.6309C299.791 15.6777 299.709 15.7285 299.646 15.7832C299.572 15.8496 299.516 15.9219 299.477 16H298.135C298.135 15.4141 298.199 14.9082 298.328 14.4824C298.461 14.0527 298.635 13.6797 298.85 13.3633C299.068 13.043 299.316 12.7695 299.594 12.543C299.875 12.3125 300.16 12.1113 300.449 11.9395C300.738 11.7676 301.021 11.6133 301.299 11.4766C301.58 11.3398 301.828 11.1992 302.043 11.0547C302.262 10.9102 302.436 10.7539 302.564 10.5859C302.697 10.418 302.764 10.2188 302.764 9.98828C302.764 9.64453 302.629 9.38867 302.359 9.2207C302.094 9.05273 301.773 8.96875 301.398 8.96875C301.133 8.96875 300.895 8.98828 300.684 9.02734C300.473 9.06641 300.271 9.13477 300.08 9.23242C300.318 9.30273 300.525 9.41602 300.701 9.57227C300.877 9.72852 300.965 9.95898 300.965 10.2637C300.965 10.4004 300.934 10.5332 300.871 10.6621C300.812 10.7871 300.725 10.9023 300.607 11.0078C300.494 11.1133 300.35 11.1953 300.174 11.2539C299.998 11.3125 299.799 11.3418 299.576 11.3418C299.408 11.3418 299.234 11.3145 299.055 11.2598C298.879 11.2051 298.719 11.1172 298.574 10.9961C298.434 10.875 298.316 10.7168 298.223 10.5215C298.133 10.3262 298.088 10.0879 298.088 9.80664C298.088 9.43164 298.188 9.08789 298.387 8.77539C298.586 8.46289 298.865 8.19336 299.225 7.9668C299.584 7.73633 300.016 7.56055 300.52 7.43945C301.023 7.31445 301.576 7.25195 302.178 7.25195C302.818 7.25195 303.383 7.32031 303.871 7.45703C304.359 7.59375 304.77 7.7832 305.102 8.02539C305.434 8.26367 305.684 8.54297 305.852 8.86328C306.02 9.17969 306.104 9.51953 306.104 9.88281C306.104 10.3203 306.033 10.6855 305.893 10.9785C305.752 11.2715 305.561 11.5137 305.318 11.7051C305.08 11.8965 304.805 12.0547 304.492 12.1797C304.18 12.3008 303.852 12.4082 303.508 12.502C303.164 12.5957 302.816 12.6895 302.465 12.7832C302.113 12.873 301.779 12.9883 301.463 13.1289C301.146 13.2656 300.857 13.4375 300.596 13.6445C300.338 13.8477 300.133 14.1094 299.98 14.4297L300.08 14.4648ZM306.725 11.752C306.725 11.0332 306.832 10.3945 307.047 9.83594C307.266 9.27344 307.566 8.80273 307.949 8.42383C308.332 8.04102 308.789 7.75 309.32 7.55078C309.855 7.35156 310.438 7.25195 311.066 7.25195C311.699 7.25195 312.281 7.35156 312.812 7.55078C313.348 7.75 313.807 8.04102 314.189 8.42383C314.572 8.80273 314.871 9.27344 315.086 9.83594C315.305 10.3945 315.414 11.0332 315.414 11.752C315.414 12.4707 315.305 13.1113 315.086 13.6738C314.871 14.2324 314.572 14.7031 314.189 15.0859C313.807 15.4648 313.348 15.7539 312.812 15.9531C312.281 16.1523 311.699 16.252 311.066 16.252C310.438 16.252 309.855 16.1523 309.32 15.9531C308.789 15.7539 308.332 15.4648 307.949 15.0859C307.566 14.7031 307.266 14.2324 307.047 13.6738C306.832 13.1113 306.725 12.4707 306.725 11.752ZM310.111 11.752C310.111 12.6895 310.174 13.3633 310.299 13.7734C310.428 14.1797 310.684 14.3828 311.066 14.3828C311.453 14.3828 311.709 14.1797 311.834 13.7734C311.963 13.3633 312.027 12.6895 312.027 11.752C312.027 10.8145 311.963 10.1426 311.834 9.73633C311.709 9.32617 311.453 9.12109 311.066 9.12109C310.684 9.12109 310.428 9.32617 310.299 9.73633C310.174 10.1426 310.111 10.8145 310.111 11.752ZM317.822 14.4648C317.9 14.3672 318.004 14.2617 318.133 14.1484C318.262 14.0312 318.41 13.9238 318.578 13.8262C318.746 13.7246 318.936 13.6406 319.146 13.5742C319.357 13.5039 319.588 13.4688 319.838 13.4688C320.092 13.4688 320.307 13.4824 320.482 13.5098C320.658 13.5371 320.818 13.5664 320.963 13.5977C321.107 13.625 321.244 13.6523 321.373 13.6797C321.502 13.707 321.645 13.7207 321.801 13.7207C322.098 13.7207 322.33 13.6562 322.498 13.5273C322.666 13.3984 322.75 13.1582 322.75 12.8066H323.904C323.904 13.5527 323.834 14.1465 323.693 14.5879C323.553 15.0254 323.359 15.3594 323.113 15.5898C322.871 15.8164 322.582 15.9609 322.246 16.0234C321.91 16.0859 321.551 16.1172 321.168 16.1172C320.863 16.1172 320.568 16.0879 320.283 16.0293C320.002 15.9707 319.73 15.9082 319.469 15.8418C319.211 15.7715 318.963 15.707 318.725 15.6484C318.49 15.5859 318.27 15.5547 318.062 15.5547C317.883 15.5547 317.74 15.5801 317.635 15.6309C317.533 15.6777 317.451 15.7285 317.389 15.7832C317.314 15.8496 317.258 15.9219 317.219 16H315.877C315.877 15.4141 315.941 14.9082 316.07 14.4824C316.203 14.0527 316.377 13.6797 316.592 13.3633C316.811 13.043 317.059 12.7695 317.336 12.543C317.617 12.3125 317.902 12.1113 318.191 11.9395C318.48 11.7676 318.764 11.6133 319.041 11.4766C319.322 11.3398 319.57 11.1992 319.785 11.0547C320.004 10.9102 320.178 10.7539 320.307 10.5859C320.439 10.418 320.506 10.2188 320.506 9.98828C320.506 9.64453 320.371 9.38867 320.102 9.2207C319.836 9.05273 319.516 8.96875 319.141 8.96875C318.875 8.96875 318.637 8.98828 318.426 9.02734C318.215 9.06641 318.014 9.13477 317.822 9.23242C318.061 9.30273 318.268 9.41602 318.443 9.57227C318.619 9.72852 318.707 9.95898 318.707 10.2637C318.707 10.4004 318.676 10.5332 318.613 10.6621C318.555 10.7871 318.467 10.9023 318.35 11.0078C318.236 11.1133 318.092 11.1953 317.916 11.2539C317.74 11.3125 317.541 11.3418 317.318 11.3418C317.15 11.3418 316.977 11.3145 316.797 11.2598C316.621 11.2051 316.461 11.1172 316.316 10.9961C316.176 10.875 316.059 10.7168 315.965 10.5215C315.875 10.3262 315.83 10.0879 315.83 9.80664C315.83 9.43164 315.93 9.08789 316.129 8.77539C316.328 8.46289 316.607 8.19336 316.967 7.9668C317.326 7.73633 317.758 7.56055 318.262 7.43945C318.766 7.31445 319.318 7.25195 319.92 7.25195C320.561 7.25195 321.125 7.32031 321.613 7.45703C322.102 7.59375 322.512 7.7832 322.844 8.02539C323.176 8.26367 323.426 8.54297 323.594 8.86328C323.762 9.17969 323.846 9.51953 323.846 9.88281C323.846 10.3203 323.775 10.6855 323.635 10.9785C323.494 11.2715 323.303 11.5137 323.061 11.7051C322.822 11.8965 322.547 12.0547 322.234 12.1797C321.922 12.3008 321.594 12.4082 321.25 12.502C320.906 12.5957 320.559 12.6895 320.207 12.7832C319.855 12.873 319.521 12.9883 319.205 13.1289C318.889 13.2656 318.6 13.4375 318.338 13.6445C318.08 13.8477 317.875 14.1094 317.723 14.4297L317.822 14.4648ZM324.502 8.45312C324.67 8.45312 324.85 8.4375 325.041 8.40625C325.236 8.37109 325.412 8.31445 325.568 8.23633C325.729 8.1543 325.861 8.04492 325.967 7.9082C326.072 7.76758 326.125 7.58789 326.125 7.36914H328.838V13.1934C328.838 13.4551 328.9 13.627 329.025 13.709C329.154 13.7871 329.318 13.8262 329.518 13.8262H329.916V16H324.625V13.8262H325.094C325.301 13.8262 325.453 13.7617 325.551 13.6328C325.652 13.5 325.703 13.3574 325.703 13.2051V10.3867H324.502V8.45312Z" fill="#5D1B24"/>
</svg>
